<?xml version="1.0" encoding="UTF-8"?>
<svg width="45px" height="36px" viewBox="0 0 45 36" version="1.1" xmlns="http://www.w3.org/2000/svg" xmlns:xlink="http://www.w3.org/1999/xlink">
    <!-- Generator: Sketch 45.2 (43514) - http://www.bohemiancoding.com/sketch -->
    <title>Donnut_to_give</title>
    <desc>Created with Sketch.</desc>
    <defs>
        <linearGradient x1="50%" y1="0%" x2="50%" y2="100%" id="linearGradient-1">
            <stop stop-color="#F9DEA4" offset="0%"></stop>
            <stop stop-color="#FBCA62" offset="100%"></stop>
        </linearGradient>
    </defs>
    <g id="Symbols" stroke="none" stroke-width="1" fill="none" fill-rule="evenodd">
        <g id="Donnut_to_give_zero">
            <g id="Donnut_to_give">
                <g id="Group" fill-rule="nonzero" fill="url(#linearGradient-1)">
                    <path d="M22.4229439,35.5029946 C26.1929141,35.5029946 29.7420644,34.7715285 32.8565262,33.4784333 C33.2647087,33.3089598 29.5235428,28.7761114 29.5235428,28.7761114 C29.2670855,27.5793105 29.7301135,25.384064 29.7301135,25.384064 L30.2709743,23.5440911 L31.7658372,22.7966597 L32.8565262,20.928081 L34.7555631,19.8069338 L35.1292788,18.6857866 L36.6241418,18.3120709 L39.6138676,16.8172079 L40.3612991,15.6960608 L41.856162,14.9486293 C41.856162,14.9486293 43.9902015,15.234714 44.4721721,15.322345 C44.4721721,13.261413 44.4021585,13.7497902 43.5857941,11.9108861 C40.5236648,5.01327773 32.2187436,0.0747431464 22.4229439,0.0747431464 C10.0155816,0.0747431464 0,7.99751667 0,17.7888689 C0,27.580221 10.0155816,35.5029946 22.4229439,35.5029946 Z M22.4229439,13.8274821 C26.9822759,13.8274821 30.7194332,16.5929785 30.7194332,19.4332181 C30.7194332,22.2734576 26.9822759,24.5904952 22.4229439,24.5904952 C17.863612,24.5904952 14.1264547,22.2734576 14.1264547,19.4332181 C14.1264547,16.5929785 17.863612,13.8274821 22.4229439,13.8274821 Z" id="Bread"></path>
                </g>
                <path d="M1.49486293,19.8069338 C1.94332181,21.5260262 1.27063349,22.8714028 2.24229439,24.2915226 C2.76549642,24.9642109 4.33510249,24.2915226 5.23202025,24.2915226 C6.87636947,24.2915226 6.20368115,28.1781662 8.22174611,28.1781662 C11.211472,28.1781662 9.71660904,30.4952037 13.8274821,30.4952037 C15.9950333,30.4952037 17.9383551,28.7761114 19.0595023,28.7761114 C21.8997419,28.7761114 21.1523104,33.2607002 23.9178069,33.2607002 C25.5713138,33.2607002 26.4552395,31.9346992 27.2812484,30.4952037 C28.1072574,29.0557083 28.4304996,28.7761114 29.5235428,28.7761114 C29.6943468,28.7761114 28.7981768,27.5003089 28.7761114,26.1601013 C28.754046,24.8198936 28.7761114,23.5440911 28.7761114,23.5440911 L30.64469,22.0492282 L30.64469,20.5543653 L31.7658372,17.9383551 L33.2607002,17.5646394 L33.6344159,15.0981156 L35.8767103,15.0981156 L37.7452889,13.8274821 L39.9875833,13.8274821 L43.3510249,13.4537664 C43.3510249,13.4537664 43.3756088,12.0488878 43.6048707,11.8307817 C43.9280132,11.5233632 43.6311432,10.6786517 43.6048707,10.6135268 C41.0721471,4.33533463 32.8404034,0 22.4229439,0 C10.0155816,0 0,7.02585576 0,14.8738861 C0,15.7989823 0.0492903436,17.5587821 0.373715732,18.6857866 C0.698141121,19.8127911 1.36459355,19.3640179 1.49486293,19.8069338 Z M15.7708039,12.781078 C16.2940059,12.257876 16.6677217,10.8377562 17.4151531,10.3892974 C18.8352729,9.64186589 20.1059064,12.257876 22.1239713,12.257876 C23.1703754,12.257876 25.3379266,10.4640405 26.2348444,10.6135268 C27.7297073,10.9872425 27.1317622,11.9589034 28.0286799,12.781078 C29.0003408,13.6032527 30.64469,13.9769684 30.64469,15.0981156 C30.64469,17.9383551 28.8508545,20.2553927 22.3482008,20.2553927 C15.9950333,20.2553927 14.1264547,17.9383551 14.1264547,15.0981156 C14.1264547,14.2011978 15.0981156,13.5285095 15.7708039,12.781078 Z" id="Cream" fill="#FF4081" fill-rule="nonzero"></path>
                <g id="Deco" transform="translate(3.123196, 1.615416)" fill-rule="nonzero">
                    <path d="M25.7578281,24.1579736 C25.7578281,24.1579736 25.4273788,24.4228449 24.8175283,24.7416245 C24.0665966,25.1341499 22.5647331,25.9192007 22.5647331,25.9192007 C21.9312655,26.2748532 21.2977979,25.1367651 22.0016508,24.8522431 C22.0016508,24.8522431 23.5996442,24.0169435 24.3986409,23.5992937 C24.9604264,23.3056385 25.9717531,23.057425 25.9717531,23.057425" id="Shape" fill="#03A9F4" transform="translate(23.832261, 24.522393) rotate(-11.000000) translate(-23.832261, -24.522393) "></path>
                    <path id="1" d="M33.9363507,7.67591709 L29.5269295,6.25731644 C28.8040736,6.0546592 29.2377871,4.90626819 29.960643,5.10892543 L34.4423498,6.52752608 C35.0929201,6.79773573 34.6592066,7.87857433 33.9363507,7.67591709" id="Shape" fill="#FFFFFF" transform="translate(31.958311, 6.393056) rotate(-10.000000) translate(-31.958311, -6.393056) "></path>
                    <path id="2" d="M8.6067638,18.8889082 L4.16676425,20.3075088 C3.45063529,20.5101661 3.02095792,19.4293275 3.73708688,19.1591178 L8.17708643,17.7405172 C8.89321539,17.5378599 9.32289276,18.6862509 8.6067638,18.8889082" id="Shape" fill="#FFEB3B" transform="translate(6.171925, 19.024648) rotate(-9.000000) translate(-6.171925, -19.024648) "></path>
                    <path id="3" d="M17.2903987,3.59765191 L12.8668563,1.85915278 C12.1295993,1.56940292 12.6456792,0.410403497 13.3092106,0.700153353 L17.7327529,2.43865249 C18.47001,2.72840234 18.0276558,3.88740177 17.2903987,3.59765191" id="Shape" fill="#AA00FF" transform="translate(15.308773, 2.148903) rotate(-9.000000) translate(-15.308773, -2.148903) "></path>
                    <path id="4" d="M4.53057865,14.6342784 L0.44650784,12.542325 C-0.187227285,12.1816433 0.305677813,11.0995985 1.00982795,11.3881438 L5.09389876,13.4800972 C5.72763389,13.8407788 5.23472879,14.99496 4.53057865,14.6342784" id="Shape" fill="#03A9F4" transform="translate(2.770203, 13.021512) rotate(-3.000000) translate(-2.770203, -13.021512) "></path>
                    <path id="5" d="M16.1821968,23.6584447 L11.3711453,23.8719965 C10.6309835,23.8719965 10.5569673,22.6618694 11.2971291,22.5906855 L16.1081806,22.3771336 C16.9223586,22.3771336 16.9963748,23.6584447 16.1821968,23.6584447" id="Shape" fill="#FFFFFF" transform="translate(13.767356, 23.124565) rotate(-6.000000) translate(-13.767356, -23.124565) "></path>
                    <path id="6" d="M26.7268136,3.52286303 L22.2508471,4.84832643 C21.5403762,5.069237 21.1851408,3.81741046 21.8956116,3.59649989 L26.3715782,2.27103649 C27.0820491,2.12376278 27.4372845,3.30195247 26.7268136,3.52286303" id="Shape" fill="#00E676" transform="translate(24.311213, 3.566346) rotate(-7.000000) translate(-24.311213, -3.566346) "></path>
                    <path id="7" d="M9.75339593,6.84818687 L5.28393511,8.1362711 C4.57449688,8.36358008 4.21977777,7.07549585 5.00015982,6.84818687 L9.46962064,5.56010264 C10.1790589,5.40856332 10.4628342,6.62087789 9.75339593,6.84818687" id="Shape" fill="#00E676" transform="translate(7.361466, 6.855045) rotate(-10.000000) translate(-7.361466, -6.855045) "></path>
                </g>
                <g id="Miettes" transform="translate(29.726323, 17.767419)">
                    <path id="8" d="M4.84238253,7.27153479 C5.00832416,7.27153479 5.0292404,6.52410333 5.0292404,6.52410333 L5.40295613,5.77667187 L5.40295613,5.0292404 L4.84238253,4.28180894 C4.84238253,4.28180894 4.28180894,4.95108187 4.28180894,5.77667187 C4.28180894,6.60226186 4.53278629,7.27153479 4.84238253,7.27153479 Z" id="Oval-2" fill="#FBCC68"></path>
                    <path id="9" d="M5.51512707,3.71334978 C5.62575483,3.71334978 5.63969898,3.24620511 5.63969898,3.24620511 L5.8888428,2.77906045 L5.8888428,2.31191578 L5.51512707,1.84477112 C5.51512707,1.84477112 5.14141134,2.2630667 5.14141134,2.77906045 C5.14141134,3.2950542 5.30872957,3.71334978 5.51512707,3.71334978 Z" id="Oval-2" fill="#FBCC68" transform="translate(5.600595, 2.779060) rotate(238.000000) translate(-5.600595, -2.779060) "></path>
                    <ellipse id="Oval-2" fill="#FBCC68" transform="translate(8.787074, 1.582870) rotate(-76.000000) translate(-8.787074, -1.582870) " cx="8.70160635" cy="1.58286963" rx="1" ry="1.1211472"></ellipse>
                    <ellipse id="Oval-2" fill="#FBCC68" transform="translate(4.321162, 8.592344) rotate(-55.000000) translate(-4.321162, -8.592344) " cx="4.09157014" cy="8.50687594" rx="1" ry="1"></ellipse>
                    <ellipse id="Oval-2" fill="#FBCC68" transform="translate(7.310888, 5.602618) rotate(-55.000000) translate(-7.310888, -5.602618) " cx="7.081296" cy="5.51715008" rx="1" ry="1"></ellipse>
                    <ellipse id="Oval-2" fill="#FF4081" transform="translate(6.993753, 2.516393) rotate(-126.000000) translate(-6.993753, -2.516393) " cx="6.76416101" cy="2.43092506" rx="1" ry="1"></ellipse>
                    <ellipse id="Oval-2" fill="#FF4081" transform="translate(1.388017, 6.253550) rotate(-126.000000) translate(-1.388017, -6.253550) " cx="1.15842503" cy="6.16808239" rx="1" ry="1"></ellipse>
                </g>
            </g>
        </g>
    </g>
    <use xlink:href="#1"/>
    <use xlink:href="#2"/>
    <use xlink:href="#3"/>
    <use xlink:href="#4"/>
    <use xlink:href="#5"/>
    <use xlink:href="#6"/>
    <use xlink:href="#7"/>
    <use xlink:href="#8"/>
    <use xlink:href="#9"/>
</svg>
