<?xml version="1.0" encoding="UTF-8"?>
<svg width="38px" height="37px" viewBox="0 0 38 37" version="1.1" xmlns="http://www.w3.org/2000/svg" xmlns:xlink="http://www.w3.org/1999/xlink">
    <!-- Generator: Sketch 43.1 (39012) - http://www.bohemiancoding.com/sketch -->
    <title>Combined Shape</title>
    <desc>Created with Sketch.</desc>
    <defs>
        <linearGradient x1="50%" y1="0%" x2="50%" y2="100%" id="linearGradient-1">
            <stop stop-color="#FFF8EE" offset="0%"></stop>
            <stop stop-color="#FBD9A7" offset="55.6752253%"></stop>
            <stop stop-color="#FBCA63" offset="100%"></stop>
        </linearGradient>
    </defs>
    <g id="Symbols" stroke="none" stroke-width="1" fill="none" fill-rule="evenodd" stroke-opacity="0.283231431">
        <g id="Donnut_to_give" transform="translate(1.000000, 1.000000)" stroke="#FFFFFF" fill="url(#linearGradient-1)">
            <g id="Donut">
                <path d="M18,35.1290323 C8.0588745,35.1290323 0,27.3301214 0,17.7096774 C0,8.08923339 8.0588745,0.290322581 18,0.290322581 C27.9411255,0.290322581 36,8.08923339 36,17.7096774 C36,27.3301214 27.9411255,35.1290323 18,35.1290323 Z M18,25.6004963 C21.8481776,25.6004963 24.9677419,22.4009431 24.9677419,18.4540943 C24.9677419,14.5072455 21.8481776,11.3076923 18,11.3076923 C14.1518224,11.3076923 11.0322581,14.5072455 11.0322581,18.4540943 C11.0322581,22.4009431 14.1518224,25.6004963 18,25.6004963 Z" id="Combined-Shape"></path>
            </g>
        </g>
    </g>
</svg>