<?xml version="1.0" encoding="UTF-8"?>
<svg width="14px" height="14px" viewBox="0 0 14 14" version="1.1" xmlns="http://www.w3.org/2000/svg" xmlns:xlink="http://www.w3.org/1999/xlink">
    <!-- Generator: Sketch 44.1 (41455) - http://www.bohemiancoding.com/sketch -->
    <title>Search Icon</title>
    <desc>Created with Sketch.</desc>
    <defs></defs>
    <g id="Symbols" stroke="none" stroke-width="1" fill="none" fill-rule="evenodd">
        <g id="Search_Btn" transform="translate(-45.000000, -15.000000)" fill="#7A797B">
            <g id="Search">
                <path d="M54.4972482,23.5041466 C54.5773657,23.5405938 54.6522731,23.5916129 54.7177516,23.6570914 L58.149991,27.0893308 C58.4448449,27.3841847 58.4484764,27.858606 58.1535412,28.1535412 C57.860648,28.4464344 57.3812716,28.4419317 57.0893308,28.149991 L53.6570914,24.7177516 C53.59137,24.6520301 53.5401171,24.5773874 53.5034141,24.4977995 C52.6671694,25.1270411 51.6271393,25.5 50.5,25.5 C47.7385763,25.5 45.5,23.2614237 45.5,20.5 C45.5,17.7385763 47.7385763,15.5 50.5,15.5 C53.2614237,15.5 55.5,17.7385763 55.5,20.5 C55.5,21.6274685 55.1268232,22.6677768 54.4972482,23.5041466 Z M50.5,24.5 C52.709139,24.5 54.5,22.709139 54.5,20.5 C54.5,18.290861 52.709139,16.5 50.5,16.5 C48.290861,16.5 46.5,18.290861 46.5,20.5 C46.5,22.709139 48.290861,24.5 50.5,24.5 Z" id="Search-Icon"></path>
            </g>
        </g>
    </g>
</svg>