<svg xmlns="http://www.w3.org/2000/svg" width="22" height="21" viewBox="0 0 22 21">
    <path fill="none" fill-rule="nonzero" stroke="#FFF" stroke-width="1.4" d="M19.7 8.713l-1.13-.484a1.204 1.204 0 0 1-.617-.591v-.054a1.26 1.26 0 0 1 0-.887l.457-1.128a.932.932 0 0 0-.135-1.156L17.012 3.15a.935.935 0 0 0-1.128-.134l-1.156.456a1.179 1.179 0 0 1-1.532-.645l-.484-1.101A.894.894 0 0 0 11.826 1h-1.801c-.43 0-.806.296-.887.699l-.484 1.128c-.268.592-.94.86-1.531.645l-1.13-.456c-.349-.242-.832-.189-1.155.134L3.575 4.413a.935.935 0 0 0-.134 1.129l.457 1.155a1.179 1.179 0 0 1-.645 1.532l-1.102.484a.894.894 0 0 0-.726.887v1.8c0 .43.296.807.699.887l1.129.484c.59.269.86.94.645 1.532L3.44 15.43c-.242.377-.188.833.134 1.156l1.263 1.263c.296.296.78.35 1.129.134l1.156-.456a1.179 1.179 0 0 1 1.531.645l.484 1.101c.08.43.457.726.887.726h1.8c.43 0 .807-.296.887-.699l.484-1.128c.269-.592.94-.86 1.532-.645l1.129.456c.349.242.833.189 1.155-.134l1.263-1.263a.935.935 0 0 0 .135-1.129l-.457-1.155a1.179 1.179 0 0 1 .645-1.532l1.102-.484a.894.894 0 0 0 .725-.887V9.6a.894.894 0 0 0-.725-.887zm-8.788 5.67a3.9 3.9 0 0 1-3.897-3.896 3.9 3.9 0 0 1 3.897-3.897 3.9 3.9 0 0 1 3.897 3.897 3.9 3.9 0 0 1-3.897 3.896z"/>
</svg>
