<?xml version="1.0" encoding="UTF-8"?>
<svg width="31px" height="31px" viewBox="0 0 31 31" version="1.1" xmlns="http://www.w3.org/2000/svg" xmlns:xlink="http://www.w3.org/1999/xlink">
    <!-- Generator: Sketch 43.1 (39012) - http://www.bohemiancoding.com/sketch -->
    <title>Notification_inactive</title>
    <desc>Created with Sketch.</desc>
    <defs></defs>
    <g id="Page-1" stroke="none" stroke-width="1" fill="none" fill-rule="evenodd">
        <g id="YO_SideBar_Received" transform="translate(-259.000000, -20.000000)">
            <g id="Top" transform="translate(229.425254, 0.000000)">
                <g id="Notification_inactive" transform="translate(30.000000, 20.000000)">
                    <g>
                        <circle id="Oval-2" fill="#D8D8D8" cx="15.2363425" cy="15.2363425" r="15.2363425"></circle>
                        <g id="Bell" transform="translate(8.706481, 8.152685)" fill-rule="nonzero" fill="#F7F7F7">
                            <path d="M12.0100716,9.747099 C11.4074699,8.81139877 11.0984012,7.71689382 11.1225741,6.60420363 C11.1303729,5.84772509 11.1225741,5.0896868 11.1225741,4.33320826 C11.12534,2.50534061 9.98950441,0.869114924 8.27603119,0.232626658 C8.21189735,0.209163059 7.46037913,-0.000463122838 6.70505362,-3.67463221e-16 C5.94972811,0.000463122838 5.19924331,0.210866501 5.13625531,0.237305907 C3.42377558,0.872685109 2.28758716,2.50665598 2.28815261,4.33320826 C2.28815261,5.0896868 2.28035386,5.84772509 2.28815261,6.60420363 C2.31334903,7.71658365 2.00536618,8.81109059 1.40377461,9.747099 C1.10673444,10.1986446 0.746990292,10.6056544 0.335346156,10.9559049 C0.0561099892,11.1612023 -0.0496039448,11.5289586 0.0779874782,11.8512012 C0.198775624,12.1724388 0.515369603,12.3769585 0.85786226,12.3550003 L12.5513047,12.3550003 C12.8937974,12.3769585 13.2103914,12.1724388 13.3311795,11.8512012 C13.4592893,11.5307836 13.3563065,11.1642673 13.0800598,10.9574647 C12.6677652,10.6068312 12.307488,10.1992872 12.0100716,9.747099 Z" id="Shape"></path>
                            <path d="M7.65993011,13.5404099 C7.47889171,13.7761869 7.22589959,13.9464911 6.93932581,14.0254921 L6.47140094,14.0254921 C6.18482716,13.9464911 5.93183504,13.7761869 5.75079664,13.5404099 C5.59385734,13.3274303 5.51958678,13.064712 5.5417902,12.8010886 L7.86581705,12.8010886 C7.8889157,13.0643239 7.81576427,13.3270041 7.65993011,13.5404099 Z" id="Shape"></path>
                        </g>
                    </g>
                </g>
            </g>
        </g>
    </g>
</svg>