<?xml version="1.0" encoding="UTF-8"?>
<svg width="20px" height="20px" viewBox="0 0 20 20" version="1.1" xmlns="http://www.w3.org/2000/svg" xmlns:xlink="http://www.w3.org/1999/xlink">
    <!-- Generator: Sketch 44.1 (41455) - http://www.bohemiancoding.com/sketch -->
    <title>Combined Shape</title>
    <desc>Created with Sketch.</desc>
    <defs></defs>
    <g id="Page-1" stroke="none" stroke-width="1" fill="none" fill-rule="evenodd">
        <g id="Sign_Up_3" transform="translate(-630.000000, -610.000000)" fill="#383838">
            <g id="Steps" transform="translate(469.000000, 607.000000)">
                <g id="Dots" transform="translate(118.000000, 3.000000)">
                    <path d="M53.2624305,19.6978022 C47.9780284,19.6978022 43.6941741,15.4358974 43.6941741,10.1785714 C43.6941741,4.92124544 47.9780284,0.659340659 53.2624305,0.659340659 C58.5468326,0.659340659 62.8306869,4.92124544 62.8306869,10.1785714 C62.8306869,15.4358974 58.5468326,19.6978022 53.2624305,19.6978022 Z M53.2624305,16.5247253 C56.7853652,16.5247253 59.6412681,13.6834554 59.6412681,10.1785714 C59.6412681,6.67368744 56.7853652,3.83241758 53.2624305,3.83241758 C49.7394958,3.83241758 46.8835929,6.67368744 46.8835929,10.1785714 C46.8835929,13.6834554 49.7394958,16.5247253 53.2624305,16.5247253 Z" id="Combined-Shape"></path>
                </g>
            </g>
        </g>
    </g>
</svg>