<?xml version="1.0" encoding="UTF-8"?>
<svg width="25px" height="25px" viewBox="0 0 25 25" version="1.1" xmlns="http://www.w3.org/2000/svg" xmlns:xlink="http://www.w3.org/1999/xlink">
    <!-- Generator: Sketch 46.2 (44496) - http://www.bohemiancoding.com/sketch -->
    <title>GIF</title>
    <desc>Created with Sketch.</desc>
    <defs>
        <path d="M4.80481515,0.521099656 C7.36987676,0.173699885 9.93493838,3.1412945e-16 12.5,0 C15.0650641,-3.14129752e-16 17.6301282,0.173700219 20.1951922,0.521100656 L20.1951909,0.521110287 C22.4240594,0.822977936 24.1770303,2.57594962 24.478897,4.80481818 C24.826299,7.36990225 25,9.93497513 25,12.5000368 C25,15.0650869 24.8263006,17.6301369 24.4789017,20.1951869 L24.4789014,20.1951868 C24.177033,22.4240585 22.424059,24.1770321 20.1951872,24.4789 C17.6301248,24.8263 15.0650624,25 12.5,25 C9.93493592,25 7.36987184,24.8262998 4.80480776,24.4788993 L4.80480806,24.4788971 C2.57593735,24.1770292 0.822964254,22.4240563 0.521095986,20.1951857 C0.173698662,17.6301472 1.57064676e-16,15.0650976 0,12.5000368 C0,9.9349645 0.173700219,7.36989214 0.521100656,4.80481972 L0.521096894,4.80481921 C0.822964427,2.5759444 2.57594042,0.822967868 4.80481515,0.521099656 Z" id="path-1"></path>
    </defs>
    <g id="Page-1" stroke="none" stroke-width="1" fill="none" fill-rule="evenodd">
        <g id="YO_comment" transform="translate(-1224.000000, -76.000000)">
            <g id="GIF" transform="translate(1224.000000, 76.000000)">
                <g>
                    <g id="Rectangle-3">
                        <use fill="#F0F0F0" fill-rule="evenodd" xlink:href="#path-1"></use>
                        <path stroke="#AAAAAA" stroke-width="1" d="M4.87192012,1.01657611 C2.8659322,1.2882576 1.28825451,2.86593688 1.01657714,4.87192455 C0.672182124,7.41480605 0.5,9.95746035 0.5,12.5000368 C0.5,15.0426017 0.672180561,17.5852332 1.01657243,20.1280805 C1.28825381,22.1340637 2.86592936,23.7117397 4.8719128,23.9834229 C7.41478589,24.3278179 9.95743184,24.5 12.5,24.5 C15.0425665,24.5 17.5852108,24.3278181 20.1280822,23.9834236 C22.1340668,23.7117425 23.7117434,22.1340663 23.9834253,20.1280818 C24.3278187,17.5852228 24.5,15.0425909 24.5,12.5000368 C24.5,9.95747103 24.3278171,7.41481621 23.9834205,4.87192301 C23.7117407,2.86594304 22.1340679,1.2882667 20.1280872,1.01657711 C17.5852141,0.672182115 15.0425682,0.5 12.5,0.5 C9.95743428,0.5 7.41479077,0.672181784 4.87192012,1.01657611 Z"></path>
                    </g>
                    <path d="M10.6201172,16.7421875 C10.2509747,17.184247 9.72917004,17.5271798 9.0546875,17.7709961 C8.38020496,18.0148124 7.6328166,18.1367188 6.8125,18.1367188 C5.95116757,18.1367188 5.19580403,17.9487323 4.54638672,17.5727539 C3.89696941,17.1967755 3.39567234,16.6510452 3.04248047,15.9355469 C2.6892886,15.2200485 2.50813807,14.3792366 2.49902344,13.4130859 L2.49902344,12.7363281 C2.49902344,11.7428336 2.66650223,10.8826534 3.00146484,10.1557617 C3.33642746,9.42887006 3.81949554,8.87288604 4.45068359,8.48779297 C5.08187165,8.1026999 5.82128482,7.91015625 6.66894531,7.91015625 C7.84928976,7.91015625 8.77213209,8.1915662 9.4375,8.75439453 C10.1028679,9.31722287 10.4970697,10.1363879 10.6201172,11.2119141 L8.62402344,11.2119141 C8.53287715,10.6422498 8.33121901,10.2252617 8.01904297,9.9609375 C7.70686693,9.69661326 7.27734648,9.56445312 6.73046875,9.56445312 C6.03319964,9.56445312 5.50228047,9.82649478 5.13769531,10.3505859 C4.77311016,10.8746771 4.58854169,11.6539662 4.58398438,12.6884766 L4.58398438,13.3242188 C4.58398438,14.3678438 4.78222458,15.1562473 5.17871094,15.6894531 C5.57519729,16.2226589 6.15624617,16.4892578 6.921875,16.4892578 C7.69206114,16.4892578 8.2412093,16.325197 8.56933594,15.9970703 L8.56933594,14.28125 L6.703125,14.28125 L6.703125,12.7705078 L10.6201172,12.7705078 L10.6201172,16.7421875 Z M14.4619141,18 L12.4111328,18 L12.4111328,8.046875 L14.4619141,8.046875 L14.4619141,18 Z M22.3505859,13.9326172 L18.4130859,13.9326172 L18.4130859,18 L16.3623047,18 L16.3623047,8.046875 L22.8427734,8.046875 L22.8427734,9.70800781 L18.4130859,9.70800781 L18.4130859,12.2783203 L22.3505859,12.2783203 L22.3505859,13.9326172 Z" fill="#AAAAAA"></path>
                </g>
            </g>
        </g>
    </g>
</svg>