<?xml version="1.0" encoding="UTF-8"?>
<svg width="41px" height="42px" viewBox="0 0 41 42" version="1.1" xmlns="http://www.w3.org/2000/svg" xmlns:xlink="http://www.w3.org/1999/xlink">
    <!-- Generator: Sketch 42 (36781) - http://www.bohemiancoding.com/sketch -->
    <title>Note_IMG_Download</title>
    <desc>Created with Sketch.</desc>
    <defs></defs>
    <g id="Page-1" stroke="none" stroke-width="1" fill="none" fill-rule="evenodd">
        <g id="Note_IMG_Download">
            <g id="Symbols">
                <g id="Note_IMG_Download">
                    <g id="PowerPoint" fill-rule="nonzero">
                        <path d="M34.8861774,24.0445559 L34.8861774,14.5017975 C34.8861774,13.4021612 34.2020074,11.9197402 33.3580408,11.2070849 L21.6141175,1.29037665 C20.7701423,0.577713994 19.1908398,-4.54747351e-13 18.0866273,-4.54747351e-13 L4.99088159,-4.54747351e-13 C2.24565079,-4.54747351e-13 0,2.24047767 0,5.00424693 L0,36.6539582 C0,39.4184791 2.23783244,41.6582051 4.99833865,41.6582051 L25.6791865,41.6582051 C24.9682411,41.0777098 24.3378478,40.4048135 23.8069772,39.6582051 L4.99833865,39.6582051 C3.34262537,39.6582051 2,38.3141322 2,36.6539582 L2,5.00424693 C2,3.3483986 3.34687385,2 4.99088159,2 L18.0866273,2 C18.7184551,2 19.8406676,2.41051102 20.3237849,2.81846102 L32.0677083,12.7351693 C32.4591149,13.0656777 32.8861774,13.987853 32.8861774,14.5017975 L32.8861774,23.7266386 C33.5732575,23.7683519 34.2421012,23.876469 34.8861774,24.0445559 Z" id="Combined-Shape" fill="#6F4C8C"></path>
                        <ellipse id="Oval" fill="#6F4C8C" cx="32.2432852" cy="33.8472917" rx="7.92867668" ry="7.81091346"></ellipse>
                        <path d="M33.8290205,34.8647938 L33.8290205,38.576911 C33.8290205,39.1283029 33.3806289,39.5752944 32.8214017,39.5752944 L32.7223255,39.5752944 C32.165833,39.5752944 31.7147067,39.1192606 31.7147067,38.576911 L31.7147067,34.8647938 L30.6478007,34.8647938 C30.0771445,34.8647938 29.8129687,34.445957 30.0751942,33.9292957 L32.2970624,29.5515612 C32.5637746,29.0260597 32.9844394,29.0348998 33.2466648,29.5515612 L35.4685331,33.9292957 C35.7352453,34.4547971 35.4743939,34.8647938 34.8959265,34.8647938 L33.8290205,34.8647938 Z" id="Combined-Shape" fill="#F2F2F2" transform="translate(32.773433, 34.368019) scale(-1, 1) rotate(-180.000000) translate(-32.773433, -34.368019) "></path>
                    </g>
                    <path d="M4.24009824,16.0843718 L6.11209824,16.0843718 L6.11209824,24.5803718 L4.24009824,24.5803718 L4.24009824,16.0843718 Z M7.81609824,16.0843718 L10.6480982,16.0843718 L12.6040982,21.6283718 L12.6280982,21.6283718 L14.5960982,16.0843718 L17.4160982,16.0843718 L17.4160982,24.5803718 L15.5440982,24.5803718 L15.5440982,18.0643718 L15.5200982,18.0643718 L13.2880982,24.5803718 L11.8600982,24.5803718 L9.71209824,18.0643718 L9.68809824,18.0643718 L9.68809824,24.5803718 L7.81609824,24.5803718 L7.81609824,16.0843718 Z M26.8360982,23.9803718 C26.2840955,24.2683732 25.7081012,24.4763712 25.1080982,24.6043718 C24.5080952,24.7323724 23.8961014,24.7963718 23.2720982,24.7963718 C22.6080949,24.7963718 21.996101,24.6923728 21.4360982,24.4843718 C20.8760954,24.2763708 20.3921003,23.9783737 19.9840982,23.5903718 C19.5760962,23.2023699 19.2580994,22.7323746 19.0300982,22.1803718 C18.8020971,21.628369 18.6880982,21.0123752 18.6880982,20.3323718 C18.6880982,19.6523684 18.8020971,19.0363746 19.0300982,18.4843718 C19.2580994,17.932369 19.5760962,17.4623737 19.9840982,17.0743718 C20.3921003,16.6863699 20.8760954,16.3883728 21.4360982,16.1803718 C21.996101,15.9723708 22.6080949,15.8683718 23.2720982,15.8683718 C23.9521016,15.8683718 24.5780954,15.950371 25.1500982,16.1143718 C25.7221011,16.2783726 26.2240961,16.5603698 26.6560982,16.9603718 L25.3360982,18.4003718 C25.080097,18.1363705 24.7920998,17.9363725 24.4720982,17.8003718 C24.1520966,17.6643711 23.7521006,17.5963718 23.2720982,17.5963718 C22.8720962,17.5963718 22.5100999,17.6643711 22.1860982,17.8003718 C21.8620966,17.9363725 21.5840994,18.1263706 21.3520982,18.3703718 C21.1200971,18.614373 20.9420989,18.9043701 20.8180982,19.2403718 C20.6940976,19.5763735 20.6320982,19.9403698 20.6320982,20.3323718 C20.6320982,20.7323738 20.6940976,21.0983701 20.8180982,21.4303718 C20.9420989,21.7623735 21.1200971,22.0503706 21.3520982,22.2943718 C21.5840994,22.538373 21.8620966,22.7283711 22.1860982,22.8643718 C22.5100999,23.0003725 22.8720962,23.0683718 23.2720982,23.0683718 C23.6801003,23.0683718 24.0320968,23.0223723 24.3280982,22.9303718 C24.6240997,22.8383713 24.8600974,22.7443723 25.0360982,22.6483718 L25.0360982,21.2683718 L23.5120982,21.2683718 L23.5120982,19.5403718 L26.8360982,19.5403718 L26.8360982,23.9803718 Z" id="IMG" fill="#6F4C8C"></path>
                </g>
            </g>
        </g>
    </g>
</svg>