<?xml version="1.0" encoding="UTF-8"?>
<svg width="41px" height="42px" viewBox="0 0 41 42" version="1.1" xmlns="http://www.w3.org/2000/svg" xmlns:xlink="http://www.w3.org/1999/xlink">
    <!-- Generator: Sketch 42 (36781) - http://www.bohemiancoding.com/sketch -->
    <title>Note_Excel_Download</title>
    <desc>Created with Sketch.</desc>
    <defs></defs>
    <g id="Page-1" stroke="none" stroke-width="1" fill="none" fill-rule="evenodd">
        <g id="Note_Excel_Download" fill-rule="nonzero">
            <g id="Symbols">
                <g id="Note_Excel_Download">
                    <g id="PowerPoint">
                        <path d="M34.8861774,24.0445559 L34.8861774,14.5017975 C34.8861774,13.4021612 34.2020074,11.9197402 33.3580408,11.2070849 L21.6141175,1.29037665 C20.7701423,0.577713994 19.1908398,-4.54747351e-13 18.0866273,-4.54747351e-13 L4.99088159,-4.54747351e-13 C2.24565079,-4.54747351e-13 0,2.24047767 0,5.00424693 L0,36.6539582 C0,39.4184791 2.23783244,41.6582051 4.99833865,41.6582051 L25.6791865,41.6582051 C24.9682411,41.0777098 24.3378478,40.4048135 23.8069772,39.6582051 L4.99833865,39.6582051 C3.34262537,39.6582051 2,38.3141322 2,36.6539582 L2,5.00424693 C2,3.3483986 3.34687385,2 4.99088159,2 L18.0866273,2 C18.7184551,2 19.8406676,2.41051102 20.3237849,2.81846102 L32.0677083,12.7351693 C32.4591149,13.0656777 32.8861774,13.987853 32.8861774,14.5017975 L32.8861774,23.7266386 C33.5732575,23.7683519 34.2421012,23.876469 34.8861774,24.0445559 Z" id="Combined-Shape" fill="#646464"></path>
                        <ellipse id="Oval" fill="#646464" cx="32.2432852" cy="33.8472917" rx="7.92867668" ry="7.81091346"></ellipse>
                        <path d="M33.8290205,34.8647938 L33.8290205,38.576911 C33.8290205,39.1283029 33.3806289,39.5752944 32.8214017,39.5752944 L32.7223255,39.5752944 C32.165833,39.5752944 31.7147067,39.1192606 31.7147067,38.576911 L31.7147067,34.8647938 L30.6478007,34.8647938 C30.0771445,34.8647938 29.8129687,34.445957 30.0751942,33.9292957 L32.2970624,29.5515612 C32.5637746,29.0260597 32.9844394,29.0348998 33.2466648,29.5515612 L35.4685331,33.9292957 C35.7352453,34.4547971 35.4743939,34.8647938 34.8959265,34.8647938 L33.8290205,34.8647938 Z" id="Combined-Shape" fill="#F2F2F2" transform="translate(32.773433, 34.368019) scale(-1, 1) rotate(-180.000000) translate(-32.773433, -34.368019) "></path>
                    </g>
                </g>
            </g>
        </g>
    </g>
</svg>