<svg width="41px" height="42px" viewBox="0 0 41 42" version="1.1" xmlns="http://www.w3.org/2000/svg" xmlns:xlink="http://www.w3.org/1999/xlink">
    <!-- Generator: Sketch 42 (36781) - http://www.bohemiancoding.com/sketch -->
    <title>Note_PDF_Download</title>
    <desc>Created with Sketch.</desc>
    <defs></defs>
    <g id="Page-1" stroke="none" stroke-width="1" fill="none" fill-rule="evenodd">
        <g id="Note_PDF_Download">
            <g id="Symbols">
                <g id="Note_PDF_Download">
                    <g id="PowerPoint">
                        <path d="M34.8861774,24.0445559 L34.8861774,14.5017975 C34.8861774,13.4021612 34.2020074,11.9197402 33.3580408,11.2070849 L21.6141175,1.29037665 C20.7701423,0.577713994 19.1908398,-4.54747351e-13 18.0866273,-4.54747351e-13 L4.99088159,-4.54747351e-13 C2.24565079,-4.54747351e-13 0,2.24047767 0,5.00424693 L0,36.6539582 C0,39.4184791 2.23783244,41.6582051 4.99833865,41.6582051 L25.6791865,41.6582051 C24.9682411,41.0777098 24.3378478,40.4048135 23.8069772,39.6582051 L4.99833865,39.6582051 C3.34262537,39.6582051 2,38.3141322 2,36.6539582 L2,5.00424693 C2,3.3483986 3.34687385,2 4.99088159,2 L18.0866273,2 C18.7184551,2 19.8406676,2.41051102 20.3237849,2.81846102 L32.0677083,12.7351693 C32.4591149,13.0656777 32.8861774,13.987853 32.8861774,14.5017975 L32.8861774,23.7266386 C33.5732575,23.7683519 34.2421012,23.876469 34.8861774,24.0445559 Z" id="Combined-Shape" fill="#BB0706" fill-rule="nonzero"></path>
                        <path d="M4.26409824,16.0843718 L7.42009824,16.0843718 C7.86010044,16.0843718 8.27609628,16.1243714 8.66809824,16.2043718 C9.0601002,16.2843722 9.40209678,16.4223708 9.69409824,16.6183718 C9.9860997,16.8143728 10.2180974,17.0783701 10.3900982,17.4103718 C10.5620991,17.7423735 10.6480982,18.1603693 10.6480982,18.6643718 C10.6480982,19.1603743 10.568099,19.5763701 10.4080982,19.9123718 C10.2480974,20.2483735 10.0280996,20.5163708 9.74809824,20.7163718 C9.46809684,20.9163728 9.13610016,21.0583714 8.75209824,21.1423718 C8.36809632,21.2263722 7.95210048,21.2683718 7.50409824,21.2683718 L6.13609824,21.2683718 L6.13609824,24.5803718 L4.26409824,24.5803718 L4.26409824,16.0843718 Z M6.13609824,19.6843718 L7.38409824,19.6843718 C7.55209908,19.6843718 7.71409746,19.668372 7.87009824,19.6363718 C8.02609902,19.6043716 8.16609762,19.5503722 8.29009824,19.4743718 C8.41409886,19.3983714 8.51409786,19.2943725 8.59009824,19.1623718 C8.66609862,19.0303711 8.70409824,18.8643728 8.70409824,18.6643718 C8.70409824,18.4483707 8.65409874,18.2743725 8.55409824,18.1423718 C8.45409774,18.0103711 8.32609902,17.9083722 8.17009824,17.8363718 C8.01409746,17.7643714 7.8400992,17.7183719 7.64809824,17.6983718 C7.45609728,17.6783717 7.27209912,17.6683718 7.09609824,17.6683718 L6.13609824,17.6683718 L6.13609824,19.6843718 Z M11.8240982,16.0843718 L14.6320982,16.0843718 C15.3121016,16.0843718 15.9580952,16.160371 16.5700982,16.3123718 C17.1821013,16.4643726 17.716096,16.7103701 18.1720982,17.0503718 C18.6281005,17.3903735 18.9900969,17.8323691 19.2580982,18.3763718 C19.5260996,18.9203745 19.6600982,19.5803679 19.6600982,20.3563718 C19.6600982,21.0443752 19.5300995,21.6503692 19.2700982,22.1743718 C19.0100969,22.6983744 18.6601004,23.13837 18.2200982,23.4943718 C17.780096,23.8503736 17.2721011,24.1203709 16.6960982,24.3043718 C16.1200954,24.4883727 15.5161014,24.5803718 14.8840982,24.5803718 L11.8240982,24.5803718 L11.8240982,16.0843718 Z M13.6960982,22.8523718 L14.6680982,22.8523718 C15.1001004,22.8523718 15.5020964,22.8083722 15.8740982,22.7203718 C16.2461001,22.6323714 16.5680969,22.4863728 16.8400982,22.2823718 C17.1120996,22.0783708 17.3260975,21.8103735 17.4820982,21.4783718 C17.638099,21.1463701 17.7160982,20.7403742 17.7160982,20.2603718 C17.7160982,19.8443697 17.638099,19.4823733 17.4820982,19.1743718 C17.3260975,18.8663703 17.1160996,18.6123728 16.8520982,18.4123718 C16.5880969,18.2123708 16.2781,18.0623723 15.9220982,17.9623718 C15.5660965,17.8623713 15.1921002,17.8123718 14.8000982,17.8123718 L13.6960982,17.8123718 L13.6960982,22.8523718 Z M21.0040982,16.0843718 L26.7040982,16.0843718 L26.7040982,17.8123718 L22.8760982,17.8123718 L22.8760982,19.5403718 L26.4160982,19.5403718 L26.4160982,21.2683718 L22.8760982,21.2683718 L22.8760982,24.5803718 L21.0040982,24.5803718 L21.0040982,16.0843718 Z" id="PDF" fill="#BB0706"></path>
                        <ellipse id="Oval" fill="#BB0706" fill-rule="nonzero" cx="32.2432852" cy="33.8472917" rx="7.92867668" ry="7.81091346"></ellipse>
                        <path d="M33.8290205,34.8647938 L33.8290205,38.576911 C33.8290205,39.1283029 33.3806289,39.5752944 32.8214017,39.5752944 L32.7223255,39.5752944 C32.165833,39.5752944 31.7147067,39.1192606 31.7147067,38.576911 L31.7147067,34.8647938 L30.6478007,34.8647938 C30.0771445,34.8647938 29.8129687,34.445957 30.0751942,33.9292957 L32.2970624,29.5515612 C32.5637746,29.0260597 32.9844394,29.0348998 33.2466648,29.5515612 L35.4685331,33.9292957 C35.7352453,34.4547971 35.4743939,34.8647938 34.8959265,34.8647938 L33.8290205,34.8647938 Z" id="Combined-Shape" fill="#F2F2F2" fill-rule="nonzero" transform="translate(32.773433, 34.368019) scale(-1, 1) rotate(-180.000000) translate(-32.773433, -34.368019) "></path>
                    </g>
                </g>
            </g>
        </g>
    </g>
</svg>
