<?xml version="1.0" encoding="UTF-8"?>
<svg width="41px" height="42px" viewBox="0 0 41 42" version="1.1" xmlns="http://www.w3.org/2000/svg" xmlns:xlink="http://www.w3.org/1999/xlink">
    <!-- Generator: Sketch 42 (36781) - http://www.bohemiancoding.com/sketch -->
    <title>Note_PowerPoint_Download</title>
    <desc>Created with Sketch.</desc>
    <defs></defs>
    <g id="Page-1" stroke="none" stroke-width="1" fill="none" fill-rule="evenodd">
        <g id="Note_PowerPoint_Download" fill-rule="nonzero">
            <g id="Page-1">
                <g id="Note_PowerPoint_Download">
                    <g id="Symbols">
                        <g id="Note_PowerPoint_Download">
                            <g id="PowerPoint">
                                <path d="M8.40809824,18.6683718 L12.0900982,18.6683718 C12.6034341,18.6683718 13.0887626,18.715038 13.5460982,18.8083718 C14.0034339,18.9017056 14.4024299,19.062704 14.7430982,19.2913718 C15.0837666,19.5200396 15.3544306,19.8280365 15.5550982,20.2153718 C15.7557659,20.6027071 15.8560982,21.0903689 15.8560982,21.6783718 C15.8560982,22.2570414 15.7627658,22.7423698 15.5760982,23.1343718 C15.3894306,23.5263738 15.1327665,23.8390373 14.8060982,24.0723718 C14.4794299,24.3057063 14.0921005,24.4713713 13.6440982,24.5693718 C13.196096,24.6673723 12.7107675,24.7163718 12.1880982,24.7163718 L10.5920982,24.7163718 L10.5920982,28.5803718 L8.40809824,28.5803718 L8.40809824,18.6683718 Z M10.5920982,22.8683718 L12.0480982,22.8683718 C12.2440992,22.8683718 12.4330973,22.8497053 12.6150982,22.8123718 C12.7970992,22.7750383 12.9604309,22.7120389 13.1050982,22.6233718 C13.2497656,22.5347047 13.3664311,22.4133726 13.4550982,22.2593718 C13.5437654,22.105371 13.5880982,21.9117063 13.5880982,21.6783718 C13.5880982,21.4263705 13.5297655,21.2233726 13.4130982,21.0693718 C13.296431,20.915371 13.1470992,20.7963722 12.9650982,20.7123718 C12.7830973,20.6283714 12.5800994,20.5747053 12.3560982,20.5513718 C12.1320971,20.5280384 11.9174326,20.5163718 11.7120982,20.5163718 L10.5920982,20.5163718 L10.5920982,22.8683718 Z" id="P" fill="#E14F34"></path>
                                <path d="M34.8861774,24.0445559 L34.8861774,14.5017975 C34.8861774,13.4021612 34.2020074,11.9197402 33.3580408,11.2070849 L21.6141175,1.29037665 C20.7701423,0.577713994 19.1908398,-4.54747351e-13 18.0866273,-4.54747351e-13 L4.99088159,-4.54747351e-13 C2.24565079,-4.54747351e-13 0,2.24047767 0,5.00424693 L0,36.6539582 C0,39.4184791 2.23783244,41.6582051 4.99833865,41.6582051 L25.6791865,41.6582051 C24.9682411,41.0777098 24.3378478,40.4048135 23.8069772,39.6582051 L4.99833865,39.6582051 C3.34262537,39.6582051 2,38.3141322 2,36.6539582 L2,5.00424693 C2,3.3483986 3.34687385,2 4.99088159,2 L18.0866273,2 C18.7184551,2 19.8406676,2.41051102 20.3237849,2.81846102 L32.0677083,12.7351693 C32.4591149,13.0656777 32.8861774,13.987853 32.8861774,14.5017975 L32.8861774,23.7266386 C33.5732575,23.7683519 34.2421012,23.876469 34.8861774,24.0445559 Z" id="Combined-Shape" fill="#E14F34"></path>
                                <ellipse id="Oval" fill="#E14F34" cx="32.2432852" cy="33.8472917" rx="7.92867668" ry="7.81091346"></ellipse>
                                <path d="M33.8290205,34.8647943 L33.8290205,38.5769115 C33.8290205,39.1283034 33.3806289,39.5752949 32.8214017,39.5752949 L32.7223255,39.5752949 C32.165833,39.5752949 31.7147067,39.1192611 31.7147067,38.5769115 L31.7147067,34.8647943 L30.6478007,34.8647943 C30.0771445,34.8647943 29.8129687,34.4459575 30.0751942,33.9292962 L32.2970624,29.5515617 C32.5637746,29.0260602 32.9844394,29.0349003 33.2466648,29.5515617 L35.4685331,33.9292962 C35.7352453,34.4547976 35.4743939,34.8647943 34.8959265,34.8647943 L33.8290205,34.8647943 Z" id="Combined-Shape" fill="#F2F2F2" transform="translate(32.773433, 34.368019) rotate(180.000000) translate(-32.773433, -34.368019) "></path>
                            </g>
                        </g>
                    </g>
                </g>
            </g>
        </g>
    </g>
</svg>