<?xml version="1.0" encoding="UTF-8"?>
<svg width="45px" height="36px" viewBox="0 0 45 36" version="1.1" xmlns="http://www.w3.org/2000/svg" xmlns:xlink="http://www.w3.org/1999/xlink">
    <!-- Generator: Sketch 43.1 (39012) - http://www.bohemiancoding.com/sketch -->
    <title>Donnut</title>
    <desc>Created with Sketch.</desc>
    <defs>
        <linearGradient x1="50%" y1="0%" x2="50%" y2="100%" id="linearGradient-1">
            <stop stop-color="#F9DEA4" offset="0%"></stop>
            <stop stop-color="#FCCA62" offset="100%"></stop>
        </linearGradient>
    </defs>
    <g id="Symbols" stroke="none" stroke-width="1" fill="none" fill-rule="evenodd">
        <g id="Donnut_to_give" fill-rule="nonzero">
            <g id="Donnut">
                <g>
                    <path d="M22.5,35.2173913 C34.95,35.2173913 45,27.3583524 45,17.6457666 C45,7.93318078 34.95,0.0741418764 22.5,0.0741418764 C10.05,0.0741418764 0,7.93318078 0,17.6457666 C0,27.3583524 10.05,35.2173913 22.5,35.2173913 Z M22.5,13.7162471 C27.075,13.7162471 30.825,16.4594966 30.825,19.2768879 C30.825,22.0942792 27.075,24.3926773 22.5,24.3926773 C17.925,24.3926773 14.175,22.0942792 14.175,19.2768879 C14.175,16.4594966 17.925,13.7162471 22.5,13.7162471 Z" id="Bread" fill="url(#linearGradient-1)"></path>
                    <path d="M1.5,19.6475973 C1.95,21.3528604 1.275,22.6874142 2.25,24.0961098 C2.775,24.7633867 4.35,24.0961098 5.25,24.0961098 C6.9,24.0961098 6.225,27.9514874 8.25,27.9514874 C11.25,27.9514874 9.75,30.2498856 13.875,30.2498856 C16.05,30.2498856 18,28.5446224 19.125,28.5446224 C21.975,28.5446224 21.225,32.993135 24,32.993135 C25.6591892,32.993135 26.5461525,31.677801 27.375,30.2498856 C28.2038475,28.8219702 28.5282005,28.5446224 29.625,28.5446224 C32.175,28.5446224 32.925,30.2498856 34.875,30.2498856 C36.975,30.2498856 35.925,24.0961098 38.25,24.0961098 C40.5,24.0961098 39.7928072,22.1233015 40.5,21.8718535 C41.2071928,21.6204056 43.1348965,22.4583585 43.5,21.8718535 C44.1584783,20.7435502 44.4052139,19.607798 44.625,18.1647597 C44.8447861,16.7217215 45,15.8429799 45,14.8283753 C45,6.96933638 34.95,0 22.5,0 C10.05,0 0,6.96933638 0,14.7542334 C0,15.6718876 0.0494597291,17.4175307 0.375,18.5354691 C0.700540271,19.6534075 1.36928295,19.2082444 1.5,19.6475973 Z M15.825,12.6782609 C16.35,12.1592677 16.725,10.7505721 17.475,10.3057208 C18.9,9.56430206 20.175,12.1592677 22.2,12.1592677 C23.25,12.1592677 25.425,10.3798627 26.325,10.5281465 C27.825,10.8988558 27.225,11.8627002 28.125,12.6782609 C29.1,13.4938215 30.75,13.8645309 30.75,14.976659 C30.75,17.7940503 28.95,20.0924485 22.425,20.0924485 C16.05,20.0924485 14.175,17.7940503 14.175,14.976659 C14.175,14.0869565 15.15,13.4196796 15.825,12.6782609 Z" id="Cream" fill="#FF4081"></path>
                    <g id="Deco" transform="translate(3.133929, 1.602421)">
                        <path d="M26.9332743,22.7317461 L22.8368988,24.848495 C22.2012543,25.2012865 21.5656098,24.0723537 22.2718815,23.7901205 L26.3682569,21.6733716 C27.0039014,21.2500218 27.5689187,22.3789546 26.9332743,22.7317461" id="Shape" fill="#03A9F4" transform="translate(24.586938, 23.247914) rotate(-11.000000) translate(-24.586938, -23.247914) "></path>
                        <path d="M34.0529724,7.6141683 L29.6283983,6.20697956 C28.9030583,6.00595259 29.3382623,4.8667998 30.0636023,5.06782676 L34.5607104,6.47501551 C35.2135164,6.74305146 34.7783124,7.81519527 34.0529724,7.6141683" id="Shape" fill="#FFFFFF" transform="translate(32.068135, 6.341627) rotate(-10.000000) translate(-32.068135, -6.341627) "></path>
                        <path d="M8.6363408,18.7369567 L4.18108327,20.1441454 C3.46249334,20.3451724 3.03133939,19.2730286 3.74992931,19.0049926 L8.20518685,17.5978039 C8.92377677,17.3967769 9.35493073,18.5359297 8.6363408,18.7369567" id="Shape" fill="#FFEB3B" transform="translate(6.193135, 18.871604) rotate(-9.000000) translate(-6.193135, -18.871604) "></path>
                        <path d="M17.3498169,3.56871066 L12.9110731,1.84419685 C12.1712824,1.55677788 12.6891359,0.407102013 13.3549474,0.694520981 L17.7936913,2.41903479 C18.5334819,2.70645376 18.0896075,3.85612963 17.3498169,3.56871066" id="Shape" fill="#AA00FF" transform="translate(15.361381, 2.131616) rotate(-9.000000) translate(-15.361381, -2.131616) "></path>
                        <path d="M4.54614791,14.5165532 L0.448042257,12.4414284 C-0.187870688,12.0836483 0.306728269,11.0103079 1.01329821,11.296532 L5.11140386,13.3716568 C5.7473168,13.7294369 5.25271785,14.8743333 4.54614791,14.5165532" id="Shape" fill="#03A9F4" transform="translate(2.779723, 12.916761) rotate(-3.000000) translate(-2.779723, -12.916761) "></path>
                        <path d="M37.8691187,12.2117729 L33.4284603,13.618279 C32.7122251,13.8192085 32.282484,12.7475847 32.9987192,12.4796788 L37.4393776,11.0731726 C38.2272363,10.8722432 38.5853539,11.9438669 37.8691187,12.2117729" id="Shape" fill="#AA00FF" transform="translate(35.443135, 12.345726) rotate(-11.000000) translate(-35.443135, -12.345726) "></path>
                        <path d="M16.2628516,23.4668273 L11.4352669,23.6786612 C10.6925616,23.6786612 10.6182911,22.4782689 11.3609964,22.4076576 L16.188581,22.1958237 C17.0055569,22.1958237 17.0798274,23.4668273 16.2628516,23.4668273" id="Shape" fill="#FFFFFF" transform="translate(13.839712, 23.174085) rotate(-6.000000) translate(-13.839712, -23.174085) "></path>
                        <path d="M26.8186599,3.49452342 L22.3273117,4.80932415 C21.6143993,5.0284576 21.2579431,3.78670136 21.9708555,3.56756791 L26.4622037,2.25276718 C27.1751161,2.10667821 27.5315723,3.27538997 26.8186599,3.49452342" id="Shape" fill="#00E676" transform="translate(24.394758, 3.537657) rotate(-7.000000) translate(-24.394758, -3.537657) "></path>
                        <path d="M29.5901272,17.8945874 L34.3962502,18.1064213 C35.1356537,18.1064213 35.1356537,19.3774249 34.3223098,19.3774249 L29.5161869,19.165591 C28.702843,19.0949797 28.7767833,17.8945874 29.5901272,17.8945874" id="Shape" fill="#FFEB3B" transform="translate(31.941890, 18.872848) rotate(-8.000000) translate(-31.941890, -18.872848) "></path>
                        <path d="M9.78691331,6.79309674 L5.30209326,8.070819 C4.59021706,8.2962994 4.23427896,7.01857714 5.01734278,6.79309674 L9.50216283,5.51537449 C10.214039,5.36505422 10.4987895,6.56761635 9.78691331,6.79309674" id="Shape" fill="#00E676" transform="translate(7.386764, 6.799899) rotate(-10.000000) translate(-7.386764, -6.799899) "></path>
                    </g>
                </g>
            </g>
        </g>
    </g>
</svg>