<?xml version="1.0" encoding="UTF-8"?>
<svg width="38px" height="37px" viewBox="0 0 38 37" version="1.1" xmlns="http://www.w3.org/2000/svg" xmlns:xlink="http://www.w3.org/1999/xlink">
    <!-- Generator: Sketch 43.1 (39012) - http://www.bohemiancoding.com/sketch -->
    <title>Donut</title>
    <desc>Created with Sketch.</desc>
    <defs>
        <linearGradient x1="50%" y1="0%" x2="50%" y2="100%" id="linearGradient-1">
            <stop stop-color="#FFF8EE" offset="0%"></stop>
            <stop stop-color="#FBD9A7" offset="55.6752253%"></stop>
            <stop stop-color="#FBCA63" offset="100%"></stop>
        </linearGradient>
        <path d="M18,33.0945242 C13.9113336,34.4693804 13.9354839,29.9986607 10.4516129,28.1785657 C6.96774194,26.3584706 5.08599527,30.2580354 3.48387097,28.4516129 C0.838670721,25.4691044 0,21.3417551 0,17.1330059 C0,7.67070801 8.0588745,0 18,0 C27.9411255,0 36,7.67070801 36,17.1330059 C36,20.6302726 31.0645161,18.4509294 29.0322581,21.0867765 C27,23.7226235 30.1935484,26.9442144 28.1612903,28.1785657 C26.5860722,29.1353204 23.8064516,27.2370863 22.3548387,28.1785657 C18.7220855,30.5346775 20.6129032,32.2159085 18,33.0945242 Z M18,24.8941111 C21.8481776,24.8941111 24.9677419,21.747154 24.9677419,17.8651856 C24.9677419,13.9832173 21.8481776,10.8362601 18,10.8362601 C14.1518224,10.8362601 11.0322581,13.9832173 11.0322581,17.8651856 C11.0322581,21.747154 14.1518224,24.8941111 18,24.8941111 Z" id="path-2"></path>
        <filter x="-5.6%" y="-6.0%" width="111.1%" height="112.0%" filterUnits="objectBoundingBox" id="filter-3">
            <feGaussianBlur stdDeviation="1" in="SourceAlpha" result="shadowBlurInner1"></feGaussianBlur>
            <feOffset dx="0" dy="-2" in="shadowBlurInner1" result="shadowOffsetInner1"></feOffset>
            <feComposite in="shadowOffsetInner1" in2="SourceAlpha" operator="arithmetic" k2="-1" k3="1" result="shadowInnerInner1"></feComposite>
            <feColorMatrix values="0 0 0 0 1   0 0 0 0 1   0 0 0 0 1  0 0 0 0.255717844 0" type="matrix" in="shadowInnerInner1"></feColorMatrix>
        </filter>
    </defs>
    <g id="Symbols" stroke="none" stroke-width="1" fill="none" fill-rule="evenodd">
        <g id="Donnut_to_give" transform="translate(1.000000, 1.000000)">
            <g id="Donut">
                <path d="M0.00379693526,17.626556 C0.00126971681,17.7507326 0,17.875218 0,18 C0,27.9411255 8.0588745,36 18,36 C27.9411255,36 36,27.9411255 36,18 C36,17.875218 35.9987303,17.7507326 35.9962031,17.626556 C35.7973919,26.8438192 27.8163435,34.2580645 18,34.2580645 C8.18365646,34.2580645 0.202608085,26.8438192 0.00379693526,17.626556 Z M5.40261582,5.14285714 C8.64913981,1.96151909 13.0955012,0 18,0 C22.9044988,0 27.3508602,1.96151909 30.5973842,5.14285714 C27.3508602,2.14111075 22.9044988,0.290322581 18,0.290322581 C13.0955012,0.290322581 8.64913981,2.14111075 5.40261582,5.14285714 Z" id="Combined-Shape" fill="#E9B464"></path>
                <path d="M18,35.1290323 C8.0588745,35.1290323 0,27.3301214 0,17.7096774 C0,8.08923339 8.0588745,0.290322581 18,0.290322581 C27.9411255,0.290322581 36,8.08923339 36,17.7096774 C36,27.3301214 27.9411255,35.1290323 18,35.1290323 Z M18,25.6004963 C21.8481776,25.6004963 24.9677419,22.4009431 24.9677419,18.4540943 C24.9677419,14.5072455 21.8481776,11.3076923 18,11.3076923 C14.1518224,11.3076923 11.0322581,14.5072455 11.0322581,18.4540943 C11.0322581,22.4009431 14.1518224,25.6004963 18,25.6004963 Z" id="Combined-Shape" stroke-opacity="0.283231431" stroke="#FFFFFF" fill="url(#linearGradient-1)"></path>
                <g id="Combined-Shape">
                    <use fill="#FF4081" fill-rule="evenodd" xlink:href="#path-2"></use>
                    <use fill="black" fill-opacity="1" filter="url(#filter-3)" xlink:href="#path-2"></use>
                </g>
                <!-- <path d="M23.8806405,26.2312731 C23.3885287,26.5075632 22.8964168,25.6234348 23.4432078,25.4024028 L26.6145952,23.7446621 C27.1067071,23.413114 27.5441398,24.2972423 27.052028,24.5735324 L23.8806405,26.2312731 Z" id="Shape" fill="#03A9F4" fill-rule="nonzero" transform="translate(25.235509, 24.977771) rotate(-11.000000) translate(-25.235509, -24.977771) "></path> -->
                <!-- <path d="M29.9511491,10.9922036 L26.5256724,9.89015794 C25.9641188,9.73272285 26.301051,8.84059064 26.8626045,8.99802573 L30.3442366,10.1000714 C30.8496348,10.3099849 30.5127027,11.1496387 29.9511491,10.9922036" id="Shape" fill="#FFFFFF" fill-rule="nonzero" transform="translate(28.414501, 9.995608) rotate(-10.000000) translate(-28.414501, -9.995608) "></path> -->
                <path d="M8.24149887,22.606287 L4.79226723,23.7083326 C4.23593955,23.8657677 3.90214294,23.0261139 4.45847062,22.8162004 L7.90770226,21.7141548 C8.46402994,21.5567197 8.79782655,22.4488519 8.24149887,22.606287" id="Shape" fill="#FFEB3B" fill-rule="nonzero" transform="translate(6.349985, 22.711737) rotate(-9.000000) translate(-6.349985, -22.711737) "></path>
                <path d="M17.0196739,5.21108355 L13.5832271,3.86052346 C13.0104859,3.63543011 13.4114047,2.73505671 13.9268717,2.96015006 L17.3633186,4.31071016 C17.9360597,4.5358035 17.592415,5.4361769 17.0196739,5.21108355" id="Shape" fill="#AA00FF" fill-rule="nonzero" transform="translate(15.480240, 4.085617) rotate(-9.000000) translate(-15.480240, -4.085617) "></path>
                <path d="M6.8168334,16.6881574 L3.64410645,15.0630149 C3.15178675,14.7828179 3.53470207,13.9422269 4.08172396,14.1663845 L7.25445091,15.791527 C7.74677061,16.071724 7.36385529,16.9683543 6.8168334,16.6881574" id="Shape" fill="#03A9F4" fill-rule="nonzero" transform="translate(5.449279, 15.435274) rotate(-3.000000) translate(-5.449279, -15.435274) "></path>
                <path d="M32.0346173,15.1734817 L28.5966882,16.2749928 C28.0421835,16.4323516 27.7094807,15.593105 28.2639854,15.3832934 L31.7019144,14.2817822 C32.3118696,14.1244235 32.5891219,14.9636701 32.0346173,15.1734817" id="Shape" fill="#AA00FF" fill-rule="nonzero" transform="translate(30.156436, 15.278388) rotate(-11.000000) translate(-30.156436, -15.278388) "></path>
                <path d="M16.4490853,28.0534562 L12.7116005,28.2193548 C12.1366028,28.2193548 12.079103,27.2792627 12.6541007,27.2239631 L16.3915856,27.0580645 C17.024083,27.0580645 17.0815828,28.0534562 16.4490853,28.0534562" id="Shape" fill="#FFFFFF" fill-rule="nonzero" transform="translate(14.573107, 27.638710) rotate(-6.000000) translate(-14.573107, -27.638710) "></path>
                <path d="M25.2213588,5.15298351 L21.744186,6.18267512 C21.1922539,6.35429039 20.9162878,5.38180387 21.46822,5.2101886 L24.9453927,4.18049699 C25.4973249,4.06608681 25.773291,4.98136824 25.2213588,5.15298351" id="Shape" fill="#00E676" fill-rule="nonzero" transform="translate(23.344789, 5.186764) rotate(-7.000000) translate(-23.344789, -5.186764) "></path>
                <path d="M10.275743,8.34121109 L6.80362423,9.34186454 C6.25249426,9.51845044 5.97692928,8.51779699 6.58317224,8.34121109 L10.055291,7.34055764 C10.606421,7.2228337 10.8268729,8.16462519 10.275743,8.34121109" id="Shape" fill="#00E676" fill-rule="nonzero" transform="translate(8.417563, 8.346539) rotate(-10.000000) translate(-8.417563, -8.346539) "></path>
            </g>
        </g>
    </g>
</svg>
