<svg xmlns="http://www.w3.org/2000/svg" xmlns:xlink="http://www.w3.org/1999/xlink" width="37" height="25" viewBox="0 0 37 25">
    <defs>
        <linearGradient id="a" x1="50%" x2="50%" y1="0%" y2="100%">
            <stop offset="0%" stop-color="#FFF8EE"/>
            <stop offset="55.675%" stop-color="#FBD9A7"/>
            <stop offset="100%" stop-color="#FBCA63"/>
        </linearGradient>
        <path id="b" d="M12 22.063c-2.726.917-2.71-2.064-5.032-3.277-2.323-1.214-3.577 1.386-4.645.182C.559 16.979 0 14.228 0 11.422 0 5.114 5.373 0 12 0s12 5.114 12 11.422c0 2.332-3.29.879-4.645 2.636-1.355 1.757.774 3.905-.58 4.728-1.051.638-2.904-.628-3.872 0-2.422 1.57-1.161 2.691-2.903 3.277zm0-5.467c2.565 0 4.645-2.098 4.645-4.686S14.565 7.224 12 7.224c-2.565 0-4.645 2.098-4.645 4.686s2.08 4.686 4.645 4.686z"/>
        <filter id="c" width="112.5%" height="113.5%" x="-6.3%" y="-6.7%" filterUnits="objectBoundingBox">
            <feGaussianBlur in="SourceAlpha" result="shadowBlurInner1" stdDeviation="1"/>
            <feOffset dy="-1" in="shadowBlurInner1" result="shadowOffsetInner1"/>
            <feComposite in="shadowOffsetInner1" in2="SourceAlpha" k2="-1" k3="1" operator="arithmetic" result="shadowInnerInner1"/>
            <feColorMatrix in="shadowInnerInner1" values="0 0 0 0 1 0 0 0 0 1 0 0 0 0 1 0 0 0 0.255717844 0"/>
        </filter>
    </defs>
    <g fill="none" fill-rule="evenodd">
        <path fill="#00D56D" d="M28.934 4.16h1.998v1.694h-1.998v2.29h-1.846v-2.29h-2.004V4.16h2.004V1.934h1.846V4.16zM36.129 9h-1.98V2.695l-1.946.569v-1.5L35.947.469h.182V9z"/>
        <path fill="#E9B464" d="M.003 12.751L0 13c0 6.627 5.373 12 12 12s12-5.373 12-12c0-.083 0-.166-.003-.249-.132 6.145-5.453 11.088-11.997 11.088S.135 18.896.003 12.75zm3.599-8.322A11.961 11.961 0 0 1 12 1c3.27 0 6.234 1.308 8.398 3.429C18.234 2.427 15.27 1.194 12 1.194c-3.27 0-6.234 1.233-8.398 3.235z"/>
        <path fill="url(#a)" stroke="#FFF" stroke-opacity=".283" d="M12 23.42c-6.627 0-12-5.2-12-11.614C0 5.393 5.373.194 12 .194s12 5.199 12 11.612c0 6.414-5.373 11.613-12 11.613zm0-6.353c2.565 0 4.645-2.133 4.645-4.764 0-2.632-2.08-4.765-4.645-4.765-2.565 0-4.645 2.133-4.645 4.765 0 2.631 2.08 4.764 4.645 4.764z" transform="translate(0 1)"/>
        <g transform="translate(0 1)">
            <use fill="#00D56D" xlink:href="#b"/>
            <use fill="#000" filter="url(#c)" xlink:href="#b"/>
        </g>
        <path fill="#03A9F4" fill-rule="nonzero" d="M17.961 17.156l-1.865 1.489c-.286.243-.72-.273-.391-.487l1.864-1.489c.28-.28.679.244.392.487"/>
        <path fill="#FFF" fill-rule="nonzero" d="M20.067 8.14l-2.376-.327c-.387-.038-.27-.663.118-.625l2.413.32c.356.08.232.67-.155.632"/>
        <path fill="#FFEB3B" fill-rule="nonzero" d="M5.468 15.874L3.312 16.96c-.35.162-.658-.357-.313-.553l2.156-1.085c.35-.162.663.39.313.552"/>
        <path fill="#A0F" fill-rule="nonzero" d="M11.451 4.304l-2.403-.53c-.401-.09-.23-.724.132-.63l2.404.532c.4.088.268.717-.133.628"/>
        <path fill="#03A9F4" fill-rule="nonzero" d="M4.587 12.077l-2.169-.972c-.337-.169-.112-.742.26-.612l2.17.971c.337.17.113.78-.261.613"/>
        <path fill="#A0F" fill-rule="nonzero" d="M21.32 10.878l-2.11 1.158c-.343.174-.667-.333-.33-.541l2.109-1.158c.38-.18.667.333.331.541"/>
        <path fill="#FFF" fill-rule="nonzero" d="M10.988 19.57l-2.466.37c-.382.04-.485-.579-.108-.655l2.467-.37c.419-.045.526.611.107.655"/>
        <path fill="#FF4081" fill-rule="nonzero" d="M16.802 4.283l-2.217.964c-.351.158-.613-.463-.262-.621l2.218-.964c.355-.12.612.463.261.621M6.831 6.346L4.667 7.405c-.341.18-.638-.446-.26-.632L6.57 5.714c.349-.14.602.452.261.632"/>
    </g>
</svg>
