<?xml version="1.0" encoding="UTF-8"?>
<svg width="31px" height="30px" viewBox="0 0 31 30" version="1.1" xmlns="http://www.w3.org/2000/svg" xmlns:xlink="http://www.w3.org/1999/xlink">
    <!-- Generator: Sketch 43.1 (39012) - http://www.bohemiancoding.com/sketch -->
    <title>Settings</title>
    <desc>Created with Sketch.</desc>
    <defs></defs>
    <g id="Page-1" stroke="none" stroke-width="1" fill="none" fill-rule="evenodd">
        <g id="YO_SideBar_Received" transform="translate(-315.000000, -21.000000)" fill-rule="nonzero" fill="#D8D8D8">
            <g id="Top" transform="translate(229.425254, 0.000000)">
                <g id="Settings" transform="translate(86.000000, 21.000000)">
                    <path d="M28.854314,12.1782178 L27.0721358,11.4144272 C26.6478076,11.2446959 26.3083451,10.9052334 26.096181,10.4809052 L26.096181,10.3960396 C25.9264498,9.92927864 25.9264498,9.42008487 26.096181,8.99575672 L26.8175389,7.2135785 C27.1994342,6.61951909 27.0721358,5.85572843 26.6053748,5.38896747 L24.6110325,3.39462518 C24.1442716,2.92786421 23.3804809,2.84299859 22.8288543,3.1824611 L21.0042433,3.90381895 C20.0282885,4.28571429 18.9674682,3.81895332 18.5855728,2.8854314 L17.8217822,1.145686 C17.6944837,0.466760962 17.1004243,0 16.4214993,0 L16.4214993,0 L13.5785007,0 L13.5785007,0 C12.8995757,0 12.3055163,0.466760962 12.1782178,1.10325318 L11.4144272,2.8854314 C10.990099,3.81895332 9.92927864,4.24328147 8.99575672,3.90381895 L7.2135785,3.1824611 C6.66195191,2.80056577 5.89816124,2.8854314 5.38896747,3.39462518 L3.39462518,5.38896747 C2.92786421,5.85572843 2.84299859,6.61951909 3.1824611,7.17114569 L3.90381895,8.99575672 C4.28571429,9.97171146 3.81895332,11.0325318 2.8854314,11.4144272 L1.145686,12.1782178 C0.466760962,12.3055163 0,12.8995757 0,13.5785007 L0,16.4214993 C0,17.1004243 0.466760962,17.6944837 1.10325318,17.8217822 L2.8854314,18.5855728 C3.81895332,19.009901 4.24328147,20.0707214 3.90381895,21.0042433 L3.1824611,22.7864215 C2.80056577,23.3804809 2.8854314,24.1018388 3.39462518,24.6110325 L5.38896747,26.6053748 C5.85572843,27.0721358 6.61951909,27.1570014 7.17114569,26.8175389 L8.99575672,26.096181 C9.97171146,25.7142857 11.0325318,26.1810467 11.4144272,27.1145686 L12.1782178,28.854314 C12.3055163,29.533239 12.8995757,30 13.5785007,30 L13.5785007,30 L16.4214993,30 L16.4214993,30 C17.1004243,30 17.6944837,29.533239 17.8217822,28.8967468 L18.5855728,27.1145686 C19.009901,26.1810467 20.0707214,25.7567185 21.0042433,26.096181 L22.7864215,26.8175389 C23.3380481,27.1994342 24.1018388,27.1145686 24.6110325,26.6053748 L26.6053748,24.6110325 C27.0721358,24.1442716 27.1570014,23.3804809 26.8175389,22.8288543 L26.096181,21.0042433 C25.7142857,20.0282885 26.1810467,18.9674682 27.1145686,18.5855728 L28.854314,17.8217822 C29.533239,17.6944837 30,17.1004243 30,16.4214993 L30,13.5785007 C30,12.8995757 29.533239,12.3055163 28.854314,12.1782178 Z M14.9787836,21.1315417 C11.5841584,21.1315417 8.82602546,18.3734088 8.82602546,14.9787836 C8.82602546,11.5841584 11.5841584,8.82602546 14.9787836,8.82602546 C18.3734088,8.82602546 21.1315417,11.5841584 21.1315417,14.9787836 C21.1315417,18.3734088 18.3734088,21.1315417 14.9787836,21.1315417 Z" id="Shape"></path>
                </g>
            </g>
        </g>
    </g>
</svg>