<svg xmlns="http://www.w3.org/2000/svg" width="188" height="46" viewBox="0 0 188 46">
    <defs>
        <linearGradient id="a" x1="50%" x2="50%" y1="0%" y2="100%">
            <stop offset="0%" stop-color="#F9DEA4"/>
            <stop offset="100%" stop-color="#FCCA62"/>
        </linearGradient>
    </defs>
    <g fill="none" fill-rule="evenodd">
        <path fill="#404040" d="M78.158 32.8c0 1.462 1.34 2.646 2.998 2.646h2.823a2.996 2.996 0 0 0 2.998-2.997V14.78a2.996 2.996 0 0 0-2.998-2.996h-2.823a3.003 3.003 0 0 0-2.998 3.007v11.593c-.735.833-1.764 1.862-3.723 1.862-2.156 0-3.43-.931-3.43-3.332V14.779a2.995 2.995 0 0 0-2.998-2.996h-2.823a2.998 2.998 0 0 0-2.998 3.002v13.9c0 4.067 2.352 7.35 7.84 7.35 4.164 0 6.76-1.715 8.132-3.234zm29.739-.355a2.998 2.998 0 0 0 2.998 3.001h2.822a3.002 3.002 0 0 0 2.998-3.004v-13.8c0-4.115-2.4-7.447-7.887-7.447-4.165 0-6.761 1.715-8.133 3.283 0-1.489-1.34-2.695-2.998-2.695h-2.823a2.996 2.996 0 0 0-2.998 2.997v17.67a2.996 2.996 0 0 0 2.998 2.996h2.823a3.003 3.003 0 0 0 2.998-3.007V20.847c.735-.833 1.763-1.862 3.772-1.862 2.107 0 3.43.93 3.43 3.38v10.08zm18.127-22.377a4.935 4.935 0 0 0 4.948-4.948 4.935 4.935 0 0 0-4.948-4.948 4.935 4.935 0 0 0-4.948 4.948 4.935 4.935 0 0 0 4.948 4.948zm-4.41 22.381a2.996 2.996 0 0 0 2.999 2.997h2.822a2.996 2.996 0 0 0 2.998-2.997V14.78a2.996 2.996 0 0 0-2.998-2.996h-2.822a2.996 2.996 0 0 0-2.998 2.997v17.67zm18.03 4.81c-1.028-.243-2 .443-2.17 1.537l-.607 3.883a1.938 1.938 0 0 0 1.682 2.237s.801.133 1.438.133c4.997-.147 8.917-1.176 11.023-6.663l9.207-23.806c.598-1.545-.252-2.797-1.915-2.797h-3.315c-1.655 0-3.425 1.272-3.952 2.835l-3.601 10.687-3.557-10.67c-.525-1.576-2.284-2.852-3.947-2.852h-3.316c-1.654 0-2.509 1.26-1.91 2.806l8.223 21.25-.196.49c-.294.636-1.372.93-3.087.93-.588 0 0 0 0 0zm35.03-1.225c-8.378 0-13.277-5.83-13.277-12.444 0-6.614 4.9-12.395 13.277-12.395C183.1 11.195 188 16.976 188 23.59s-4.9 12.444-13.326 12.444zm0-7.79c2.744 0 4.262-2.008 4.262-4.654 0-2.596-1.518-4.605-4.262-4.605-2.695 0-4.213 2.009-4.213 4.605 0 2.646 1.518 4.655 4.213 4.655z"/>
        <g fill-rule="nonzero">
            <path fill="url(#a)" d="M26.604 42.123c14.72 0 26.604-9.4 26.604-21.017C53.208 9.489 41.325.089 26.604.089S0 9.489 0 21.106c0 11.617 11.883 21.017 26.604 21.017zm0-25.717c5.41 0 9.843 3.28 9.843 6.65 0 3.37-4.434 6.12-9.843 6.12-5.41 0-9.844-2.75-9.844-6.12s4.434-6.65 9.844-6.65z" transform="translate(0 2.66)"/>
            <path fill="#694700" fill-opacity=".259" d="M26.604 44.783c10.533 0 19.614-4.813 23.927-11.807 1.092-1.77-1.922 3.257-8.852 6.93-6.93 3.672-10.252 3.55-15.075 3.547-4.28-.002-9.18-.806-12.859-2.66-1.314-.663-4.264-1.967-6.207-3.548-1.943-1.58-4.422-3.555-3.912-2.867.274.37.56.732.862 1.086 4.768 5.622 12.884 9.319 22.116 9.319z"/>
            <path fill="#FF4081" d="M1.774 26.16c.532 2.04-.266 3.636.886 5.321.621.798 2.483 0 3.548 0 1.95 0 1.152 4.611 3.547 4.611 3.547 0 1.773 2.75 6.65 2.75 2.572 0 4.878-2.04 6.208-2.04 3.37 0 2.483 5.32 5.764 5.32 1.962 0 3.01-1.573 3.99-3.28.98-1.708 1.364-2.04 2.661-2.04 3.015 0 3.902 2.04 6.208 2.04 2.483 0 1.241-7.36 3.99-7.36 2.66 0 1.825-2.36 2.66-2.661.837-.301 3.116.701 3.548 0 .779-1.35 1.07-2.708 1.33-4.434s.444-2.777.444-3.99c0-9.4-11.883-17.737-26.604-17.737S0 10.996 0 20.308c0 1.097.058 3.185.443 4.522.385 1.337 1.176.805 1.33 1.33zm16.937-8.335c1.242-.976 1.064-2.306 1.951-2.838 2.838-1.242 3.459 2.305 5.853 2.305 1.242 0 3.547-2.217 4.611-2.04 1.685 0 1.508 1.597 2.572 2.573 1.153.975 2.66 1.418 2.66 2.749 0 3.37-2.128 6.118-9.843 6.118-7.538 0-9.755-2.749-9.755-6.118 0-1.065.976-2.395 1.951-2.75z"/>
            <path fill="#03A9F4" d="M35.382 31.248l-4.271 3.41c-.657.557-1.653-.625-.897-1.116l4.271-3.41c.641-.64 1.555.558.897 1.116"/>
            <path fill="#FFF" d="M44.198 13.253l-5.444-.749c-.887-.087-.616-1.519.27-1.43l5.529.733c.816.182.531 1.534-.355 1.446"/>
            <path fill="#FFEB3B" d="M13.856 26.538l-4.94 2.486c-.801.37-1.505-.816-.716-1.266l4.94-2.486c.801-.37 1.518.895.716 1.266"/>
            <path fill="#A0F" d="M24.46 8.456L18.953 7.24c-.917-.202-.528-1.656.304-1.44l5.506 1.216c.918.203.614 1.643-.303 1.44"/>
            <path fill="#03A9F4" d="M9.178 21.828L4.21 19.603c-.773-.388-.256-1.7.596-1.403l4.969 2.225c.773.388.26 1.787-.596 1.403"/>
            <path fill="#A0F" d="M48.398 18.639l-4.833 2.653c-.785.398-1.529-.764-.758-1.24L47.64 17.4c.868-.414 1.528.764.758 1.24"/>
            <path fill="#FFF" d="M22.955 32.344l-5.65.848c-.873.092-1.11-1.327-.246-1.502l5.65-.849c.96-.101 1.207 1.402.246 1.503"/>
            <path fill="#00E676" d="M35.388 8.408l-5.08 2.208c-.804.363-1.403-1.06-.599-1.423l5.08-2.208c.815-.276 1.404 1.06.599 1.423"/>
            <path fill="#FFEB3B" d="M38.557 26.379l5.662-.54c.866-.122 1.078 1.383.125 1.517l-5.662.54c-.964.05-1.078-1.384-.125-1.517"/>
            <path fill="#00E676" d="M15.233 12.21l-4.957 2.425c-.782.412-1.462-1.02-.597-1.446l4.957-2.426c.798-.323 1.379 1.035.597 1.446"/>
        </g>
    </g>
</svg>
