<?xml version="1.0" encoding="UTF-8"?>
<svg width="310px" height="247px" viewBox="0 0 310 247" version="1.1" xmlns="http://www.w3.org/2000/svg" xmlns:xlink="http://www.w3.org/1999/xlink">
    <!-- Generator: Sketch 44.1 (41455) - http://www.bohemiancoding.com/sketch -->
    <title>Donnut</title>
    <desc>Created with Sketch.</desc>
    <defs>
        <linearGradient x1="50%" y1="0%" x2="50%" y2="100%" id="linearGradient-1">
            <stop stop-color="#F9DEA4" offset="0%"></stop>
            <stop stop-color="#FCCA62" offset="100%"></stop>
        </linearGradient>
    </defs>
    <g id="Page-1" stroke="none" stroke-width="1" fill="none" fill-rule="evenodd">
        <g id="Mobile---Home" transform="translate(-27.000000, -86.000000)" fill-rule="nonzero">
            <g id="Donnut" transform="translate(27.000000, 86.000000)">
                <path d="M155,247 C240.766667,247 310,191.88 310,123.76 C310,55.64 240.766667,0.52 155,0.52 C69.2333333,0.52 0,55.64 0,123.76 C0,191.88 69.2333333,247 155,247 Z M155,96.2 C186.516667,96.2 212.35,115.44 212.35,135.2 C212.35,154.96 186.516667,171.08 155,171.08 C123.483333,171.08 97.65,154.96 97.65,135.2 C97.65,115.44 123.483333,96.2 155,96.2 Z" id="Bread" fill="url(#linearGradient-1)"></path>
                <path d="M155,247 C216.369717,247 269.274343,218.778481 294.406764,177.766481 C300.770855,167.381327 283.206978,196.866987 242.833333,218.4 C202.459689,239.933013 183.103408,239.213697 155,239.2 C130.069028,239.187849 101.515288,234.474914 80.0833333,223.6 C72.4237368,219.713399 55.2362822,212.071957 43.9166667,202.8 C32.5970511,193.528043 18.157467,181.952162 21.1263104,185.987189 C22.7196974,188.1528 24.3938516,190.276142 26.1455155,192.354609 C53.9293821,225.322042 101.213522,247 155,247 Z" id="Bread" fill-opacity="0.25891644" fill="#694700"></path>
                <path d="M10.3333333,137.8 C13.4333333,149.76 8.78333333,159.12 15.5,169 C19.1166667,173.68 29.9666667,169 36.1666667,169 C47.5333333,169 42.8833333,196.04 56.8333333,196.04 C77.5,196.04 67.1666667,212.16 95.5833333,212.16 C110.566667,212.16 124,200.2 131.75,200.2 C151.383333,200.2 146.216667,231.4 165.333333,231.4 C176.763303,231.4 182.873495,222.174799 188.583333,212.16 C194.293172,202.145201 196.527604,200.2 204.083333,200.2 C221.65,200.2 226.816667,212.16 240.25,212.16 C254.716667,212.16 247.483333,169 263.5,169 C279,169 274.128228,155.16355 279,153.4 C283.871772,151.63645 297.151509,157.5135 299.666667,153.4 C304.202851,145.486554 305.902585,137.520865 307.416667,127.4 C308.930749,117.279135 310,111.116011 310,104 C310,48.88 240.766667,0 155,0 C69.2333333,0 0,48.88 0,103.48 C0,109.916042 0.340722578,122.15925 2.58333333,130 C4.82594409,137.84075 9.43283811,134.718563 10.3333333,137.8 Z M109.016667,88.92 C116.25,83.2 115.216667,75.4 120.383333,72.28 C136.916667,65 140.533333,85.8 154.483333,85.8 C161.716667,85.8 175.15,72.8 181.35,73.84 C191.166667,73.84 190.133333,83.2 196.333333,88.92 C203.05,94.64 211.833333,97.24 211.833333,105.04 C211.833333,124.8 199.433333,140.92 154.483333,140.92 C110.566667,140.92 97.65,124.8 97.65,105.04 C97.65,98.8 103.333333,91 109.016667,88.92 Z" id="Cream" fill="#FF4081"></path>
                <g id="Deco" transform="translate(21.589286, 12.674756)">
                    <path d="M185.540334,157.994879 L157.320858,172.840867 C152.941974,175.315199 148.56309,167.397338 153.428517,165.417873 L181.647992,150.571885 C186.026876,147.602687 189.919218,155.520547 185.540334,157.994879" id="Shape" fill="#03A9F4" transform="translate(169.376682, 161.615063) rotate(-11.000000) translate(-169.376682, -161.615063) "></path>
                    <path d="M234.587143,51.9665339 L204.106744,42.0971027 C199.109957,40.687184 202.108029,32.6976444 207.104816,34.1075632 L238.084894,43.9769944 C242.582002,45.856886 239.58393,53.3764526 234.587143,51.9665339" id="Shape" fill="#FFFFFF" transform="translate(220.913819, 43.041465) rotate(-10.000000) translate(-220.913819, -43.041465) "></path>
                    <path d="M59.4947922,129.977103 L28.8030181,139.846534 C23.8527319,141.256453 20.8825602,133.736886 25.8328464,131.856994 L56.5246205,121.987563 C61.4749067,120.577644 64.4450783,128.567184 59.4947922,129.977103" id="Shape" fill="#FFEB3B" transform="translate(42.663819, 130.921465) rotate(-9.000000) translate(-42.663819, -130.921465) "></path>
                    <path d="M119.520961,23.5933921 L88.9429477,11.4983761 C83.8466122,9.4825401 87.414047,1.41919612 92.000749,3.43503212 L122.578762,15.5300481 C127.675097,17.5458841 124.617296,25.6092281 119.520961,23.5933921" id="Shape" fill="#AA00FF" transform="translate(105.822846, 13.514212) rotate(-9.000000) translate(-105.822846, -13.514212) "></path>
                    <path d="M31.3179078,100.376964 L3.08651333,85.8229102 C-1.2942203,83.3135906 2.11301697,75.7856317 6.98049877,77.7930874 L35.2118932,92.3471413 C39.5926269,94.8564609 36.1853896,102.886284 31.3179078,100.376964" id="Shape" fill="#03A9F4" transform="translate(19.149203, 89.156693) rotate(-3.000000) translate(-19.149203, -89.156693) "></path>
                    <path d="M260.876151,84.2122023 L230.284949,94.0768464 C225.350884,95.4860812 222.390445,87.970162 227.32451,86.0911822 L257.915712,76.2265382 C263.343184,74.8173033 265.810216,82.3332225 260.876151,84.2122023" id="Shape" fill="#AA00FF" transform="translate(244.163819, 85.151692) rotate(-11.000000) translate(-244.163819, -85.151692) "></path>
                    <path d="M111.860446,163.15953 L78.6037518,164.645244 C73.4873373,164.645244 72.9756959,156.226196 78.0921103,155.730958 L111.348804,154.245244 C116.97686,154.245244 117.488502,163.15953 111.860446,163.15953" id="Shape" fill="#FFFFFF" transform="translate(95.167710, 159.445244) rotate(-6.000000) translate(-95.167710, -159.445244) "></path>
                    <path d="M184.750768,23.0730739 L153.81037,32.2945343 C148.899195,33.8314444 146.443608,25.1222874 151.354783,23.5853773 L182.295181,14.3639169 C187.206355,13.3393102 189.661942,21.5361639 184.750768,23.0730739" id="Shape" fill="#00E676" transform="translate(168.052775, 23.375593) rotate(-7.000000) translate(-168.052775, -23.375593) "></path>
                    <path d="M203.613384,124.085244 L236.722231,125.570958 C241.815899,125.570958 241.815899,134.485244 236.212864,134.485244 L203.104017,132.99953 C197.500981,132.504291 198.010348,124.085244 203.613384,124.085244" id="Shape" fill="#FFEB3B" transform="translate(219.814420, 129.285244) rotate(-8.000000) translate(-219.814420, -129.285244) "></path>
                    <path d="M67.4209584,46.2078826 L36.5255313,55.1692902 C31.6214953,56.750715 29.1694773,47.7893075 34.5639169,46.2078826 L65.459344,37.2464751 C70.36338,36.1921918 72.3249944,44.6264578 67.4209584,46.2078826" id="Shape" fill="#00E676" transform="translate(50.886594, 46.255593) rotate(-10.000000) translate(-50.886594, -46.255593) "></path>
                </g>
            </g>
        </g>
    </g>
</svg>