<?xml version="1.0" encoding="UTF-8"?>
<svg width="253px" height="122px" viewBox="0 0 253 122" version="1.1" xmlns="http://www.w3.org/2000/svg" xmlns:xlink="http://www.w3.org/1999/xlink">
    <!-- Generator: Sketch 44.1 (41455) - http://www.bohemiancoding.com/sketch -->
    <title>Right</title>
    <desc>Created with Sketch.</desc>
    <defs>
        <linearGradient x1="50%" y1="0%" x2="50%" y2="100%" id="linearGradient-1">
            <stop stop-color="#FFF8EE" offset="0%"></stop>
            <stop stop-color="#FBD9A7" offset="55.6752253%"></stop>
            <stop stop-color="#FBCA63" offset="100%"></stop>
        </linearGradient>
        <path d="M20,36.7716935 C15.4570374,38.2993116 15.483871,33.3318453 11.6129032,31.3095174 C7.74193548,29.2871895 5.65110586,33.6200394 3.87096774,31.6129032 C0.931856357,28.2990049 0,23.7130612 0,19.0366732 C0,8.5230089 8.954305,0 20,0 C31.045695,0 40,8.5230089 40,19.0366732 C40,22.9225251 34.516129,20.5010327 32.2580645,23.4297516 C30,26.3584706 33.5483871,29.938016 31.2903226,31.3095174 C29.5400802,32.3725782 26.4516129,30.2634292 24.8387097,31.3095174 C20.8023172,33.9274194 22.9032258,35.7954539 20,36.7716935 Z M20,27.6601234 C24.2757529,27.6601234 27.7419355,24.1635044 27.7419355,19.8502062 C27.7419355,15.5369081 24.2757529,12.040289 20,12.040289 C15.7242471,12.040289 12.2580645,15.5369081 12.2580645,19.8502062 C12.2580645,24.1635044 15.7242471,27.6601234 20,27.6601234 Z" id="path-2"></path>
        <filter x="-6.2%" y="-6.7%" width="112.5%" height="113.5%" filterUnits="objectBoundingBox" id="filter-3">
            <feGaussianBlur stdDeviation="1" in="SourceAlpha" result="shadowBlurInner1"></feGaussianBlur>
            <feOffset dx="0" dy="-3" in="shadowBlurInner1" result="shadowOffsetInner1"></feOffset>
            <feComposite in="shadowOffsetInner1" in2="SourceAlpha" operator="arithmetic" k2="-1" k3="1" result="shadowInnerInner1"></feComposite>
            <feColorMatrix values="0 0 0 0 1   0 0 0 0 1   0 0 0 0 1  0 0 0 0.255717844 0" type="matrix" in="shadowInnerInner1"></feColorMatrix>
        </filter>
        <path d="M20,36.7716935 C15.4570374,38.2993116 15.483871,33.3318453 11.6129032,31.3095174 C7.74193548,29.2871895 5.65110586,33.6200394 3.87096774,31.6129032 C0.931856357,28.2990049 0,23.7130612 0,19.0366732 C0,8.5230089 8.954305,0 20,0 C31.045695,0 40,8.5230089 40,19.0366732 C40,22.9225251 34.516129,20.5010327 32.2580645,23.4297516 C30,26.3584706 33.5483871,29.938016 31.2903226,31.3095174 C29.5400802,32.3725782 26.4516129,30.2634292 24.8387097,31.3095174 C20.8023172,33.9274194 22.9032258,35.7954539 20,36.7716935 Z M20,27.6601234 C24.2757529,27.6601234 27.7419355,24.1635044 27.7419355,19.8502062 C27.7419355,15.5369081 24.2757529,12.040289 20,12.040289 C15.7242471,12.040289 12.2580645,15.5369081 12.2580645,19.8502062 C12.2580645,24.1635044 15.7242471,27.6601234 20,27.6601234 Z" id="path-4"></path>
        <filter x="-6.2%" y="-6.7%" width="112.5%" height="113.5%" filterUnits="objectBoundingBox" id="filter-5">
            <feGaussianBlur stdDeviation="1" in="SourceAlpha" result="shadowBlurInner1"></feGaussianBlur>
            <feOffset dx="0" dy="-3" in="shadowBlurInner1" result="shadowOffsetInner1"></feOffset>
            <feComposite in="shadowOffsetInner1" in2="SourceAlpha" operator="arithmetic" k2="-1" k3="1" result="shadowInnerInner1"></feComposite>
            <feColorMatrix values="0 0 0 0 1   0 0 0 0 1   0 0 0 0 1  0 0 0 0.255717844 0" type="matrix" in="shadowInnerInner1"></feColorMatrix>
        </filter>
        <path d="M20,36.7716935 C15.4570374,38.2993116 15.483871,33.3318453 11.6129032,31.3095174 C7.74193548,29.2871895 5.65110586,33.6200394 3.87096774,31.6129032 C0.931856357,28.2990049 0,23.7130612 0,19.0366732 C0,8.5230089 8.954305,0 20,0 C31.045695,0 40,8.5230089 40,19.0366732 C40,22.9225251 34.516129,20.5010327 32.2580645,23.4297516 C30,26.3584706 33.5483871,29.938016 31.2903226,31.3095174 C29.5400802,32.3725782 26.4516129,30.2634292 24.8387097,31.3095174 C20.8023172,33.9274194 22.9032258,35.7954539 20,36.7716935 Z M20,27.6601234 C24.2757529,27.6601234 27.7419355,24.1635044 27.7419355,19.8502062 C27.7419355,15.5369081 24.2757529,12.040289 20,12.040289 C15.7242471,12.040289 12.2580645,15.5369081 12.2580645,19.8502062 C12.2580645,24.1635044 15.7242471,27.6601234 20,27.6601234 Z" id="path-6"></path>
        <filter x="-6.2%" y="-6.7%" width="112.5%" height="113.5%" filterUnits="objectBoundingBox" id="filter-7">
            <feGaussianBlur stdDeviation="1" in="SourceAlpha" result="shadowBlurInner1"></feGaussianBlur>
            <feOffset dx="0" dy="-3" in="shadowBlurInner1" result="shadowOffsetInner1"></feOffset>
            <feComposite in="shadowOffsetInner1" in2="SourceAlpha" operator="arithmetic" k2="-1" k3="1" result="shadowInnerInner1"></feComposite>
            <feColorMatrix values="0 0 0 0 1   0 0 0 0 1   0 0 0 0 1  0 0 0 0.255717844 0" type="matrix" in="shadowInnerInner1"></feColorMatrix>
        </filter>
        <path d="M20,36.7716935 C15.4570374,38.2993116 15.483871,33.3318453 11.6129032,31.3095174 C7.74193548,29.2871895 5.65110586,33.6200394 3.87096774,31.6129032 C0.931856357,28.2990049 0,23.7130612 0,19.0366732 C0,8.5230089 8.954305,0 20,0 C31.045695,0 40,8.5230089 40,19.0366732 C40,22.9225251 34.516129,20.5010327 32.2580645,23.4297516 C30,26.3584706 33.5483871,29.938016 31.2903226,31.3095174 C29.5400802,32.3725782 26.4516129,30.2634292 24.8387097,31.3095174 C20.8023172,33.9274194 22.9032258,35.7954539 20,36.7716935 Z M20,27.6601234 C24.2757529,27.6601234 27.7419355,24.1635044 27.7419355,19.8502062 C27.7419355,15.5369081 24.2757529,12.040289 20,12.040289 C15.7242471,12.040289 12.2580645,15.5369081 12.2580645,19.8502062 C12.2580645,24.1635044 15.7242471,27.6601234 20,27.6601234 Z" id="path-8"></path>
        <filter x="-6.2%" y="-6.7%" width="112.5%" height="113.5%" filterUnits="objectBoundingBox" id="filter-9">
            <feGaussianBlur stdDeviation="1" in="SourceAlpha" result="shadowBlurInner1"></feGaussianBlur>
            <feOffset dx="0" dy="-3" in="shadowBlurInner1" result="shadowOffsetInner1"></feOffset>
            <feComposite in="shadowOffsetInner1" in2="SourceAlpha" operator="arithmetic" k2="-1" k3="1" result="shadowInnerInner1"></feComposite>
            <feColorMatrix values="0 0 0 0 0   0 0 0 0 0   0 0 0 0 0  0 0 0 0.0983922101 0" type="matrix" in="shadowInnerInner1"></feColorMatrix>
        </filter>
        <path d="M20,36.7716935 C15.4570374,38.2993116 15.483871,33.3318453 11.6129032,31.3095174 C7.74193548,29.2871895 5.65110586,33.6200394 3.87096774,31.6129032 C0.931856357,28.2990049 0,23.7130612 0,19.0366732 C0,8.5230089 8.954305,0 20,0 C31.045695,0 40,8.5230089 40,19.0366732 C40,22.9225251 34.516129,20.5010327 32.2580645,23.4297516 C30,26.3584706 33.5483871,29.938016 31.2903226,31.3095174 C29.5400802,32.3725782 26.4516129,30.2634292 24.8387097,31.3095174 C20.8023172,33.9274194 22.9032258,35.7954539 20,36.7716935 Z M20,27.6601234 C24.2757529,27.6601234 27.7419355,24.1635044 27.7419355,19.8502062 C27.7419355,15.5369081 24.2757529,12.040289 20,12.040289 C15.7242471,12.040289 12.2580645,15.5369081 12.2580645,19.8502062 C12.2580645,24.1635044 15.7242471,27.6601234 20,27.6601234 Z" id="path-10"></path>
        <filter x="-6.2%" y="-6.7%" width="112.5%" height="113.5%" filterUnits="objectBoundingBox" id="filter-11">
            <feGaussianBlur stdDeviation="1" in="SourceAlpha" result="shadowBlurInner1"></feGaussianBlur>
            <feOffset dx="0" dy="-3" in="shadowBlurInner1" result="shadowOffsetInner1"></feOffset>
            <feComposite in="shadowOffsetInner1" in2="SourceAlpha" operator="arithmetic" k2="-1" k3="1" result="shadowInnerInner1"></feComposite>
            <feColorMatrix values="0 0 0 0 1   0 0 0 0 1   0 0 0 0 1  0 0 0 0.255717844 0" type="matrix" in="shadowInnerInner1"></feColorMatrix>
        </filter>
        <path d="M20,36.7716935 C15.4570374,38.2993116 15.483871,33.3318453 11.6129032,31.3095174 C7.74193548,29.2871895 5.65110586,33.6200394 3.87096774,31.6129032 C0.931856357,28.2990049 0,23.7130612 0,19.0366732 C0,8.5230089 8.954305,0 20,0 C31.045695,0 40,8.5230089 40,19.0366732 C40,22.9225251 34.516129,20.5010327 32.2580645,23.4297516 C30,26.3584706 33.5483871,29.938016 31.2903226,31.3095174 C29.5400802,32.3725782 26.4516129,30.2634292 24.8387097,31.3095174 C20.8023172,33.9274194 22.9032258,35.7954539 20,36.7716935 Z M20,27.6601234 C24.2757529,27.6601234 27.7419355,24.1635044 27.7419355,19.8502062 C27.7419355,15.5369081 24.2757529,12.040289 20,12.040289 C15.7242471,12.040289 12.2580645,15.5369081 12.2580645,19.8502062 C12.2580645,24.1635044 15.7242471,27.6601234 20,27.6601234 Z" id="path-12"></path>
        <filter x="-6.2%" y="-6.7%" width="112.5%" height="113.5%" filterUnits="objectBoundingBox" id="filter-13">
            <feGaussianBlur stdDeviation="1" in="SourceAlpha" result="shadowBlurInner1"></feGaussianBlur>
            <feOffset dx="0" dy="-3" in="shadowBlurInner1" result="shadowOffsetInner1"></feOffset>
            <feComposite in="shadowOffsetInner1" in2="SourceAlpha" operator="arithmetic" k2="-1" k3="1" result="shadowInnerInner1"></feComposite>
            <feColorMatrix values="0 0 0 0 1   0 0 0 0 1   0 0 0 0 1  0 0 0 0.255717844 0" type="matrix" in="shadowInnerInner1"></feColorMatrix>
        </filter>
        <path d="M20,36.7716935 C15.4570374,38.2993116 15.483871,33.3318453 11.6129032,31.3095174 C7.74193548,29.2871895 5.65110586,33.6200394 3.87096774,31.6129032 C0.931856357,28.2990049 0,23.7130612 0,19.0366732 C0,8.5230089 8.954305,0 20,0 C31.045695,0 40,8.5230089 40,19.0366732 C40,22.9225251 34.516129,20.5010327 32.2580645,23.4297516 C30,26.3584706 33.5483871,29.938016 31.2903226,31.3095174 C29.5400802,32.3725782 26.4516129,30.2634292 24.8387097,31.3095174 C20.8023172,33.9274194 22.9032258,35.7954539 20,36.7716935 Z M20,27.6601234 C24.2757529,27.6601234 27.7419355,24.1635044 27.7419355,19.8502062 C27.7419355,15.5369081 24.2757529,12.040289 20,12.040289 C15.7242471,12.040289 12.2580645,15.5369081 12.2580645,19.8502062 C12.2580645,24.1635044 15.7242471,27.6601234 20,27.6601234 Z" id="path-14"></path>
        <filter x="-6.2%" y="-6.7%" width="112.5%" height="113.5%" filterUnits="objectBoundingBox" id="filter-15">
            <feGaussianBlur stdDeviation="1" in="SourceAlpha" result="shadowBlurInner1"></feGaussianBlur>
            <feOffset dx="0" dy="-3" in="shadowBlurInner1" result="shadowOffsetInner1"></feOffset>
            <feComposite in="shadowOffsetInner1" in2="SourceAlpha" operator="arithmetic" k2="-1" k3="1" result="shadowInnerInner1"></feComposite>
            <feColorMatrix values="0 0 0 0 1   0 0 0 0 1   0 0 0 0 1  0 0 0 0.255717844 0" type="matrix" in="shadowInnerInner1"></feColorMatrix>
        </filter>
        <path d="M20,36.7716935 C15.4570374,38.2993116 15.483871,33.3318453 11.6129032,31.3095174 C7.74193548,29.2871895 5.65110586,33.6200394 3.87096774,31.6129032 C0.931856357,28.2990049 0,23.7130612 0,19.0366732 C0,8.5230089 8.954305,0 20,0 C31.045695,0 40,8.5230089 40,19.0366732 C40,22.9225251 34.516129,20.5010327 32.2580645,23.4297516 C30,26.3584706 33.5483871,29.938016 31.2903226,31.3095174 C29.5400802,32.3725782 26.4516129,30.2634292 24.8387097,31.3095174 C20.8023172,33.9274194 22.9032258,35.7954539 20,36.7716935 Z M20,27.6601234 C24.2757529,27.6601234 27.7419355,24.1635044 27.7419355,19.8502062 C27.7419355,15.5369081 24.2757529,12.040289 20,12.040289 C15.7242471,12.040289 12.2580645,15.5369081 12.2580645,19.8502062 C12.2580645,24.1635044 15.7242471,27.6601234 20,27.6601234 Z" id="path-16"></path>
        <filter x="-6.2%" y="-6.7%" width="112.5%" height="113.5%" filterUnits="objectBoundingBox" id="filter-17">
            <feGaussianBlur stdDeviation="1" in="SourceAlpha" result="shadowBlurInner1"></feGaussianBlur>
            <feOffset dx="0" dy="-3" in="shadowBlurInner1" result="shadowOffsetInner1"></feOffset>
            <feComposite in="shadowOffsetInner1" in2="SourceAlpha" operator="arithmetic" k2="-1" k3="1" result="shadowInnerInner1"></feComposite>
            <feColorMatrix values="0 0 0 0 1   0 0 0 0 1   0 0 0 0 1  0 0 0 0.255717844 0" type="matrix" in="shadowInnerInner1"></feColorMatrix>
        </filter>
        <path d="M20,36.7716935 C15.4570374,38.2993116 15.483871,33.3318453 11.6129032,31.3095174 C7.74193548,29.2871895 5.65110586,33.6200394 3.87096774,31.6129032 C0.931856357,28.2990049 0,23.7130612 0,19.0366732 C0,8.5230089 8.954305,0 20,0 C31.045695,0 40,8.5230089 40,19.0366732 C40,22.9225251 34.516129,20.5010327 32.2580645,23.4297516 C30,26.3584706 33.5483871,29.938016 31.2903226,31.3095174 C29.5400802,32.3725782 26.4516129,30.2634292 24.8387097,31.3095174 C20.8023172,33.9274194 22.9032258,35.7954539 20,36.7716935 Z M20,27.6601234 C24.2757529,27.6601234 27.7419355,24.1635044 27.7419355,19.8502062 C27.7419355,15.5369081 24.2757529,12.040289 20,12.040289 C15.7242471,12.040289 12.2580645,15.5369081 12.2580645,19.8502062 C12.2580645,24.1635044 15.7242471,27.6601234 20,27.6601234 Z" id="path-18"></path>
        <filter x="-6.2%" y="-6.7%" width="112.5%" height="113.5%" filterUnits="objectBoundingBox" id="filter-19">
            <feGaussianBlur stdDeviation="1" in="SourceAlpha" result="shadowBlurInner1"></feGaussianBlur>
            <feOffset dx="0" dy="-3" in="shadowBlurInner1" result="shadowOffsetInner1"></feOffset>
            <feComposite in="shadowOffsetInner1" in2="SourceAlpha" operator="arithmetic" k2="-1" k3="1" result="shadowInnerInner1"></feComposite>
            <feColorMatrix values="0 0 0 0 1   0 0 0 0 1   0 0 0 0 1  0 0 0 0.255717844 0" type="matrix" in="shadowInnerInner1"></feColorMatrix>
        </filter>
    </defs>
    <g id="Page-1" stroke="none" stroke-width="1" fill="none" fill-rule="evenodd">
        <g id="Welcome" transform="translate(-1027.000000, -698.000000)">
            <g id="Top" transform="translate(-10.000000, 0.000000)">
                <g id="Donuts_bck" transform="translate(0.000000, 700.000000)">
                    <g id="Right" transform="translate(1042.000000, 0.000000)">
                        <g id="Donut_red" transform="translate(205.000000, 67.000000)">
                            <g>
                                <path d="M0.00421881695,19.5850622 C0.00141079646,19.7230363 0,19.8613534 0,20 C0,31.045695 8.954305,40 20,40 C31.045695,40 40,31.045695 40,20 C40,19.8613534 39.9985892,19.7230363 39.9957812,19.5850622 C39.7748799,29.8264657 30.9070484,38.0645161 20,38.0645161 C9.09295162,38.0645161 0.225120094,29.8264657 0.00421881696,19.5850622 Z M6.00290647,5.71428571 C9.61015534,2.17946565 14.5505569,0 20,0 C25.4494431,0 30.3898447,2.17946565 33.9970935,5.71428571 C30.3898447,2.37901195 25.4494431,0.322580645 20,0.322580645 C14.5505569,0.322580645 9.61015534,2.37901195 6.00290647,5.71428571 Z" id="Combined-Shape" fill="#E9B464"></path>
                                <path d="M20,39.0322581 C8.954305,39.0322581 0,30.3668016 0,19.6774194 C0,8.9880371 8.954305,0.322580645 20,0.322580645 C31.045695,0.322580645 40,8.9880371 40,19.6774194 C40,30.3668016 31.045695,39.0322581 20,39.0322581 Z M20,28.4449959 C24.2757529,28.4449959 27.7419355,24.8899368 27.7419355,20.5045492 C27.7419355,16.1191616 24.2757529,12.5641026 20,12.5641026 C15.7242471,12.5641026 12.2580645,16.1191616 12.2580645,20.5045492 C12.2580645,24.8899368 15.7242471,28.4449959 20,28.4449959 Z" id="Combined-Shape" stroke-opacity="0.283231431" stroke="#FFFFFF" fill="url(#linearGradient-1)"></path>
                                <g id="Combined-Shape">
                                    <use fill="#FF4081" fill-rule="evenodd" xlink:href="#path-2"></use>
                                    <use fill="black" fill-opacity="1" filter="url(#filter-3)" xlink:href="#path-2"></use>
                                </g>
                                <path d="M30.0578089,27.3039249 L26.534045,29.145859 C25.9872541,29.452848 25.4404631,28.4704832 26.0480086,28.224892 L29.5717725,26.3829579 C30.1185634,26.0145711 30.6045998,26.9969359 30.0578089,27.3039249" id="Shape" fill="#03A9F4" fill-rule="nonzero" transform="translate(28.039455, 27.753079) rotate(-11.000000) translate(-28.039455, -27.753079) "></path>
                                <path d="M33.2790546,12.2135596 L29.4729693,10.9890644 C28.8490209,10.8141365 29.22339,9.82287849 29.8473384,9.99780637 L33.7158184,11.2223016 C34.277372,11.4555387 33.903003,12.3884874 33.2790546,12.2135596" id="Shape" fill="#FFFFFF" fill-rule="nonzero" transform="translate(31.571668, 11.106231) rotate(-10.000000) translate(-31.571668, -11.106231) "></path>
                                <path d="M9.15722097,25.1180966 L5.32474137,26.3425918 C4.7065995,26.5175197 4.33571438,25.584571 4.95385625,25.3513338 L8.78633584,24.1268386 C9.40447771,23.9519107 9.77536284,24.9431688 9.15722097,25.1180966" id="Shape" fill="#FFEB3B" fill-rule="nonzero" transform="translate(7.055539, 25.235263) rotate(-9.000000) translate(-7.055539, -25.235263) "></path>
                                <path d="M18.9107488,5.79009284 L15.0924745,4.28947051 C14.4560955,4.03936679 14.9015608,3.0389519 15.4743019,3.28905562 L19.2925762,4.78967795 C19.9289552,5.03978167 19.5471278,6.04019656 18.9107488,5.79009284" id="Shape" fill="#AA00FF" fill-rule="nonzero" transform="translate(17.200266, 4.539574) rotate(-9.000000) translate(-17.200266, -4.539574) "></path>
                                <path d="M7.57425934,18.5423971 L4.04900716,16.7366832 C3.50198528,16.4253532 3.92744674,15.4913633 4.53524884,15.7404272 L8.06050101,17.5461411 C8.6075229,17.8574711 8.18206143,18.853727 7.57425934,18.5423971" id="Shape" fill="#03A9F4" fill-rule="nonzero" transform="translate(6.054754, 17.150304) rotate(-3.000000) translate(-6.054754, -17.150304) "></path>
                                <path d="M35.5940192,16.8594241 L31.774098,18.0833254 C31.1579817,18.2581684 30.7883119,17.3256722 31.4044282,17.0925482 L35.2243494,15.8686469 C35.9020773,15.6938039 36.2101355,16.6263001 35.5940192,16.8594241" id="Shape" fill="#AA00FF" fill-rule="nonzero" transform="translate(33.507152, 16.975986) rotate(-11.000000) translate(-33.507152, -16.975986) "></path>
                                <path d="M18.2767615,31.1705069 L14.1240005,31.3548387 C13.4851142,31.3548387 13.4212256,30.3102919 14.0601119,30.2488479 L18.2128729,30.0645161 C18.9156478,30.0645161 18.9795364,31.1705069 18.2767615,31.1705069" id="Shape" fill="#FFFFFF" fill-rule="nonzero" transform="translate(16.192341, 30.709677) rotate(-6.000000) translate(-16.192341, -30.709677) "></path>
                                <path d="M28.023732,5.72553724 L24.1602067,6.86963902 C23.5469487,7.06032266 23.2403197,5.97978208 23.8535777,5.78909845 L27.717103,4.64499666 C28.330361,4.51787424 28.63699,5.5348536 28.023732,5.72553724" id="Shape" fill="#00E676" fill-rule="nonzero" transform="translate(25.938655, 5.763071) rotate(-7.000000) translate(-25.938655, -5.763071) "></path>
                                <path d="M11.4174922,9.26801232 L7.55958247,10.3798495 C6.94721585,10.576056 6.64103254,9.46421888 7.31463582,9.26801232 L11.1725455,8.15617515 C11.7849122,8.02537078 12.0298588,9.07180576 11.4174922,9.26801232" id="Shape" fill="#00E676" fill-rule="nonzero" transform="translate(9.352847, 9.273932) rotate(-10.000000) translate(-9.352847, -9.273932) "></path>
                            </g>
                        </g>
                        <g id="Donut_brown" transform="translate(34.000000, 57.000000)">
                            <g>
                                <path d="M0.00421881695,19.5850622 C0.00141079646,19.7230363 0,19.8613534 0,20 C0,31.045695 8.954305,40 20,40 C31.045695,40 40,31.045695 40,20 C40,19.8613534 39.9985892,19.7230363 39.9957812,19.5850622 C39.7748799,29.8264657 30.9070484,38.0645161 20,38.0645161 C9.09295162,38.0645161 0.225120094,29.8264657 0.00421881696,19.5850622 Z M6.00290647,5.71428571 C9.61015534,2.17946565 14.5505569,0 20,0 C25.4494431,0 30.3898447,2.17946565 33.9970935,5.71428571 C30.3898447,2.37901195 25.4494431,0.322580645 20,0.322580645 C14.5505569,0.322580645 9.61015534,2.37901195 6.00290647,5.71428571 Z" id="Combined-Shape" fill="#E9B464"></path>
                                <path d="M20,39.0322581 C8.954305,39.0322581 0,30.3668016 0,19.6774194 C0,8.9880371 8.954305,0.322580645 20,0.322580645 C31.045695,0.322580645 40,8.9880371 40,19.6774194 C40,30.3668016 31.045695,39.0322581 20,39.0322581 Z M20,28.4449959 C24.2757529,28.4449959 27.7419355,24.8899368 27.7419355,20.5045492 C27.7419355,16.1191616 24.2757529,12.5641026 20,12.5641026 C15.7242471,12.5641026 12.2580645,16.1191616 12.2580645,20.5045492 C12.2580645,24.8899368 15.7242471,28.4449959 20,28.4449959 Z" id="Combined-Shape" stroke-opacity="0.283231431" stroke="#FFFFFF" fill="url(#linearGradient-1)"></path>
                                <g id="Combined-Shape">
                                    <use fill="#CA8800" fill-rule="evenodd" xlink:href="#path-4"></use>
                                    <use fill="black" fill-opacity="1" filter="url(#filter-5)" xlink:href="#path-4"></use>
                                </g>
                                <path d="M30.0578089,27.3039249 L26.534045,29.145859 C25.9872541,29.452848 25.4404631,28.4704832 26.0480086,28.224892 L29.5717725,26.3829579 C30.1185634,26.0145711 30.6045998,26.9969359 30.0578089,27.3039249" id="Shape" fill="#03A9F4" fill-rule="nonzero" transform="translate(28.039455, 27.753079) rotate(-11.000000) translate(-28.039455, -27.753079) "></path>
                                <path d="M33.2790546,12.2135596 L29.4729693,10.9890644 C28.8490209,10.8141365 29.22339,9.82287849 29.8473384,9.99780637 L33.7158184,11.2223016 C34.277372,11.4555387 33.903003,12.3884874 33.2790546,12.2135596" id="Shape" fill="#FFFFFF" fill-rule="nonzero" transform="translate(31.571668, 11.106231) rotate(-10.000000) translate(-31.571668, -11.106231) "></path>
                                <path d="M9.15722097,25.1180966 L5.32474137,26.3425918 C4.7065995,26.5175197 4.33571438,25.584571 4.95385625,25.3513338 L8.78633584,24.1268386 C9.40447771,23.9519107 9.77536284,24.9431688 9.15722097,25.1180966" id="Shape" fill="#FFEB3B" fill-rule="nonzero" transform="translate(7.055539, 25.235263) rotate(-9.000000) translate(-7.055539, -25.235263) "></path>
                                <path d="M18.9107488,5.79009284 L15.0924745,4.28947051 C14.4560955,4.03936679 14.9015608,3.0389519 15.4743019,3.28905562 L19.2925762,4.78967795 C19.9289552,5.03978167 19.5471278,6.04019656 18.9107488,5.79009284" id="Shape" fill="#AA00FF" fill-rule="nonzero" transform="translate(17.200266, 4.539574) rotate(-9.000000) translate(-17.200266, -4.539574) "></path>
                                <path d="M7.57425934,18.5423971 L4.04900716,16.7366832 C3.50198528,16.4253532 3.92744674,15.4913633 4.53524884,15.7404272 L8.06050101,17.5461411 C8.6075229,17.8574711 8.18206143,18.853727 7.57425934,18.5423971" id="Shape" fill="#03A9F4" fill-rule="nonzero" transform="translate(6.054754, 17.150304) rotate(-3.000000) translate(-6.054754, -17.150304) "></path>
                                <path d="M35.5940192,16.8594241 L31.774098,18.0833254 C31.1579817,18.2581684 30.7883119,17.3256722 31.4044282,17.0925482 L35.2243494,15.8686469 C35.9020773,15.6938039 36.2101355,16.6263001 35.5940192,16.8594241" id="Shape" fill="#AA00FF" fill-rule="nonzero" transform="translate(33.507152, 16.975986) rotate(-11.000000) translate(-33.507152, -16.975986) "></path>
                                <path d="M18.2767615,31.1705069 L14.1240005,31.3548387 C13.4851142,31.3548387 13.4212256,30.3102919 14.0601119,30.2488479 L18.2128729,30.0645161 C18.9156478,30.0645161 18.9795364,31.1705069 18.2767615,31.1705069" id="Shape" fill="#FFFFFF" fill-rule="nonzero" transform="translate(16.192341, 30.709677) rotate(-6.000000) translate(-16.192341, -30.709677) "></path>
                                <path d="M28.023732,5.72553724 L24.1602067,6.86963902 C23.5469487,7.06032266 23.2403197,5.97978208 23.8535777,5.78909845 L27.717103,4.64499666 C28.330361,4.51787424 28.63699,5.5348536 28.023732,5.72553724" id="Shape" fill="#00E676" fill-rule="nonzero" transform="translate(25.938655, 5.763071) rotate(-7.000000) translate(-25.938655, -5.763071) "></path>
                                <path d="M11.4174922,9.26801232 L7.55958247,10.3798495 C6.94721585,10.576056 6.64103254,9.46421888 7.31463582,9.26801232 L11.1725455,8.15617515 C11.7849122,8.02537078 12.0298588,9.07180576 11.4174922,9.26801232" id="Shape" fill="#00E676" fill-rule="nonzero" transform="translate(9.352847, 9.273932) rotate(-10.000000) translate(-9.352847, -9.273932) "></path>
                            </g>
                        </g>
                        <g id="Donut_black" transform="translate(215.000000, 24.000000)">
                            <g>
                                <path d="M0.00421881695,19.5850622 C0.00141079646,19.7230363 0,19.8613534 0,20 C0,31.045695 8.954305,40 20,40 C31.045695,40 40,31.045695 40,20 C40,19.8613534 39.9985892,19.7230363 39.9957812,19.5850622 C39.7748799,29.8264657 30.9070484,38.0645161 20,38.0645161 C9.09295162,38.0645161 0.225120094,29.8264657 0.00421881696,19.5850622 Z M6.00290647,5.71428571 C9.61015534,2.17946565 14.5505569,0 20,0 C25.4494431,0 30.3898447,2.17946565 33.9970935,5.71428571 C30.3898447,2.37901195 25.4494431,0.322580645 20,0.322580645 C14.5505569,0.322580645 9.61015534,2.37901195 6.00290647,5.71428571 Z" id="Combined-Shape" fill="#E9B464"></path>
                                <path d="M20,39.0322581 C8.954305,39.0322581 0,30.3668016 0,19.6774194 C0,8.9880371 8.954305,0.322580645 20,0.322580645 C31.045695,0.322580645 40,8.9880371 40,19.6774194 C40,30.3668016 31.045695,39.0322581 20,39.0322581 Z M20,28.4449959 C24.2757529,28.4449959 27.7419355,24.8899368 27.7419355,20.5045492 C27.7419355,16.1191616 24.2757529,12.5641026 20,12.5641026 C15.7242471,12.5641026 12.2580645,16.1191616 12.2580645,20.5045492 C12.2580645,24.8899368 15.7242471,28.4449959 20,28.4449959 Z" id="Combined-Shape" stroke-opacity="0.283231431" stroke="#FFFFFF" fill="url(#linearGradient-1)"></path>
                                <g id="Combined-Shape">
                                    <use fill="#404040" fill-rule="evenodd" xlink:href="#path-6"></use>
                                    <use fill="black" fill-opacity="1" filter="url(#filter-7)" xlink:href="#path-6"></use>
                                </g>
                                <path d="M30.0578089,27.3039249 L26.534045,29.145859 C25.9872541,29.452848 25.4404631,28.4704832 26.0480086,28.224892 L29.5717725,26.3829579 C30.1185634,26.0145711 30.6045998,26.9969359 30.0578089,27.3039249" id="Shape" fill="#03A9F4" fill-rule="nonzero" transform="translate(28.039455, 27.753079) rotate(-11.000000) translate(-28.039455, -27.753079) "></path>
                                <path d="M33.2790546,12.2135596 L29.4729693,10.9890644 C28.8490209,10.8141365 29.22339,9.82287849 29.8473384,9.99780637 L33.7158184,11.2223016 C34.277372,11.4555387 33.903003,12.3884874 33.2790546,12.2135596" id="Shape" fill="#FFFFFF" fill-rule="nonzero" transform="translate(31.571668, 11.106231) rotate(-10.000000) translate(-31.571668, -11.106231) "></path>
                                <path d="M9.15722097,25.1180966 L5.32474137,26.3425918 C4.7065995,26.5175197 4.33571438,25.584571 4.95385625,25.3513338 L8.78633584,24.1268386 C9.40447771,23.9519107 9.77536284,24.9431688 9.15722097,25.1180966" id="Shape" fill="#FFEB3B" fill-rule="nonzero" transform="translate(7.055539, 25.235263) rotate(-9.000000) translate(-7.055539, -25.235263) "></path>
                                <path d="M18.9107488,5.79009284 L15.0924745,4.28947051 C14.4560955,4.03936679 14.9015608,3.0389519 15.4743019,3.28905562 L19.2925762,4.78967795 C19.9289552,5.03978167 19.5471278,6.04019656 18.9107488,5.79009284" id="Shape" fill="#AA00FF" fill-rule="nonzero" transform="translate(17.200266, 4.539574) rotate(-9.000000) translate(-17.200266, -4.539574) "></path>
                                <path d="M7.57425934,18.5423971 L4.04900716,16.7366832 C3.50198528,16.4253532 3.92744674,15.4913633 4.53524884,15.7404272 L8.06050101,17.5461411 C8.6075229,17.8574711 8.18206143,18.853727 7.57425934,18.5423971" id="Shape" fill="#03A9F4" fill-rule="nonzero" transform="translate(6.054754, 17.150304) rotate(-3.000000) translate(-6.054754, -17.150304) "></path>
                                <path d="M35.5940192,16.8594241 L31.774098,18.0833254 C31.1579817,18.2581684 30.7883119,17.3256722 31.4044282,17.0925482 L35.2243494,15.8686469 C35.9020773,15.6938039 36.2101355,16.6263001 35.5940192,16.8594241" id="Shape" fill="#AA00FF" fill-rule="nonzero" transform="translate(33.507152, 16.975986) rotate(-11.000000) translate(-33.507152, -16.975986) "></path>
                                <path d="M18.2767615,31.1705069 L14.1240005,31.3548387 C13.4851142,31.3548387 13.4212256,30.3102919 14.0601119,30.2488479 L18.2128729,30.0645161 C18.9156478,30.0645161 18.9795364,31.1705069 18.2767615,31.1705069" id="Shape" fill="#FFFFFF" fill-rule="nonzero" transform="translate(16.192341, 30.709677) rotate(-6.000000) translate(-16.192341, -30.709677) "></path>
                                <path d="M28.023732,5.72553724 L24.1602067,6.86963902 C23.5469487,7.06032266 23.2403197,5.97978208 23.8535777,5.78909845 L27.717103,4.64499666 C28.330361,4.51787424 28.63699,5.5348536 28.023732,5.72553724" id="Shape" fill="#00E676" fill-rule="nonzero" transform="translate(25.938655, 5.763071) rotate(-7.000000) translate(-25.938655, -5.763071) "></path>
                                <path d="M11.4174922,9.26801232 L7.55958247,10.3798495 C6.94721585,10.576056 6.64103254,9.46421888 7.31463582,9.26801232 L11.1725455,8.15617515 C11.7849122,8.02537078 12.0298588,9.07180576 11.4174922,9.26801232" id="Shape" fill="#00E676" fill-rule="nonzero" transform="translate(9.352847, 9.273932) rotate(-10.000000) translate(-9.352847, -9.273932) "></path>
                            </g>
                        </g>
                        <g id="Donut_White" transform="translate(195.000000, 0.000000)">
                            <g>
                                <path d="M0.00421881695,19.5850622 C0.00141079646,19.7230363 0,19.8613534 0,20 C0,31.045695 8.954305,40 20,40 C31.045695,40 40,31.045695 40,20 C40,19.8613534 39.9985892,19.7230363 39.9957812,19.5850622 C39.7748799,29.8264657 30.9070484,38.0645161 20,38.0645161 C9.09295162,38.0645161 0.225120094,29.8264657 0.00421881696,19.5850622 Z M6.00290647,5.71428571 C9.61015534,2.17946565 14.5505569,0 20,0 C25.4494431,0 30.3898447,2.17946565 33.9970935,5.71428571 C30.3898447,2.37901195 25.4494431,0.322580645 20,0.322580645 C14.5505569,0.322580645 9.61015534,2.37901195 6.00290647,5.71428571 Z" id="Combined-Shape" fill="#E9B464"></path>
                                <path d="M20,39.0322581 C8.954305,39.0322581 0,30.3668016 0,19.6774194 C0,8.9880371 8.954305,0.322580645 20,0.322580645 C31.045695,0.322580645 40,8.9880371 40,19.6774194 C40,30.3668016 31.045695,39.0322581 20,39.0322581 Z M20,28.4449959 C24.2757529,28.4449959 27.7419355,24.8899368 27.7419355,20.5045492 C27.7419355,16.1191616 24.2757529,12.5641026 20,12.5641026 C15.7242471,12.5641026 12.2580645,16.1191616 12.2580645,20.5045492 C12.2580645,24.8899368 15.7242471,28.4449959 20,28.4449959 Z" id="Combined-Shape" stroke-opacity="0.283231431" stroke="#FFFFFF" fill="url(#linearGradient-1)"></path>
                                <g id="Combined-Shape">
                                    <use fill="#F4F4F4" fill-rule="evenodd" xlink:href="#path-8"></use>
                                    <use fill="black" fill-opacity="1" filter="url(#filter-9)" xlink:href="#path-8"></use>
                                </g>
                                <path d="M30.0578089,27.3039249 L26.534045,29.145859 C25.9872541,29.452848 25.4404631,28.4704832 26.0480086,28.224892 L29.5717725,26.3829579 C30.1185634,26.0145711 30.6045998,26.9969359 30.0578089,27.3039249" id="Shape" fill="#03A9F4" fill-rule="nonzero" transform="translate(28.039455, 27.753079) rotate(-11.000000) translate(-28.039455, -27.753079) "></path>
                                <path d="M33.2790546,12.2135596 L29.4729693,10.9890644 C28.8490209,10.8141365 29.22339,9.82287849 29.8473384,9.99780637 L33.7158184,11.2223016 C34.277372,11.4555387 33.903003,12.3884874 33.2790546,12.2135596" id="Shape" fill="#FF4081" fill-rule="nonzero" transform="translate(31.571668, 11.106231) rotate(-10.000000) translate(-31.571668, -11.106231) "></path>
                                <path d="M9.15722097,25.1180966 L5.32474137,26.3425918 C4.7065995,26.5175197 4.33571438,25.584571 4.95385625,25.3513338 L8.78633584,24.1268386 C9.40447771,23.9519107 9.77536284,24.9431688 9.15722097,25.1180966" id="Shape" fill="#FFEB3B" fill-rule="nonzero" transform="translate(7.055539, 25.235263) rotate(-9.000000) translate(-7.055539, -25.235263) "></path>
                                <path d="M18.9107488,5.79009284 L15.0924745,4.28947051 C14.4560955,4.03936679 14.9015608,3.0389519 15.4743019,3.28905562 L19.2925762,4.78967795 C19.9289552,5.03978167 19.5471278,6.04019656 18.9107488,5.79009284" id="Shape" fill="#AA00FF" fill-rule="nonzero" transform="translate(17.200266, 4.539574) rotate(-9.000000) translate(-17.200266, -4.539574) "></path>
                                <path d="M7.57425934,18.5423971 L4.04900716,16.7366832 C3.50198528,16.4253532 3.92744674,15.4913633 4.53524884,15.7404272 L8.06050101,17.5461411 C8.6075229,17.8574711 8.18206143,18.853727 7.57425934,18.5423971" id="Shape" fill="#03A9F4" fill-rule="nonzero" transform="translate(6.054754, 17.150304) rotate(-3.000000) translate(-6.054754, -17.150304) "></path>
                                <path d="M35.5940192,16.8594241 L31.774098,18.0833254 C31.1579817,18.2581684 30.7883119,17.3256722 31.4044282,17.0925482 L35.2243494,15.8686469 C35.9020773,15.6938039 36.2101355,16.6263001 35.5940192,16.8594241" id="Shape" fill="#AA00FF" fill-rule="nonzero" transform="translate(33.507152, 16.975986) rotate(-11.000000) translate(-33.507152, -16.975986) "></path>
                                <path d="M18.9219228,31.4930876 L14.7691618,31.6774194 C14.1302755,31.6774194 14.0663869,30.6328725 14.7052732,30.5714286 L18.8580341,30.3870968 C19.5608091,30.3870968 19.6246977,31.4930876 18.9219228,31.4930876" id="Shape" fill="#FF4081" fill-rule="nonzero" transform="translate(16.837502, 31.032258) rotate(-6.000000) translate(-16.837502, -31.032258) "></path>
                                <path d="M28.023732,5.72553724 L24.1602067,6.86963902 C23.5469487,7.06032266 23.2403197,5.97978208 23.8535777,5.78909845 L27.717103,4.64499666 C28.330361,4.51787424 28.63699,5.5348536 28.023732,5.72553724" id="Shape" fill="#00E676" fill-rule="nonzero" transform="translate(25.938655, 5.763071) rotate(-7.000000) translate(-25.938655, -5.763071) "></path>
                                <path d="M11.4174922,9.26801232 L7.55958247,10.3798495 C6.94721585,10.576056 6.64103254,9.46421888 7.31463582,9.26801232 L11.1725455,8.15617515 C11.7849122,8.02537078 12.0298588,9.07180576 11.4174922,9.26801232" id="Shape" fill="#00E676" fill-rule="nonzero" transform="translate(9.352847, 9.273932) rotate(-10.000000) translate(-9.352847, -9.273932) "></path>
                            </g>
                        </g>
                        <g id="Donut_green" transform="translate(107.000000, 58.000000)">
                            <g id="Donut">
                                <path d="M0.00421881695,19.5850622 C0.00141079646,19.7230363 0,19.8613534 0,20 C0,31.045695 8.954305,40 20,40 C31.045695,40 40,31.045695 40,20 C40,19.8613534 39.9985892,19.7230363 39.9957812,19.5850622 C39.7748799,29.8264657 30.9070484,38.0645161 20,38.0645161 C9.09295162,38.0645161 0.225120094,29.8264657 0.00421881696,19.5850622 Z M6.00290647,5.71428571 C9.61015534,2.17946565 14.5505569,0 20,0 C25.4494431,0 30.3898447,2.17946565 33.9970935,5.71428571 C30.3898447,2.37901195 25.4494431,0.322580645 20,0.322580645 C14.5505569,0.322580645 9.61015534,2.37901195 6.00290647,5.71428571 Z" id="Combined-Shape" fill="#E9B464"></path>
                                <path d="M20,39.0322581 C8.954305,39.0322581 0,30.3668016 0,19.6774194 C0,8.9880371 8.954305,0.322580645 20,0.322580645 C31.045695,0.322580645 40,8.9880371 40,19.6774194 C40,30.3668016 31.045695,39.0322581 20,39.0322581 Z M20,28.4449959 C24.2757529,28.4449959 27.7419355,24.8899368 27.7419355,20.5045492 C27.7419355,16.1191616 24.2757529,12.5641026 20,12.5641026 C15.7242471,12.5641026 12.2580645,16.1191616 12.2580645,20.5045492 C12.2580645,24.8899368 15.7242471,28.4449959 20,28.4449959 Z" id="Combined-Shape" stroke-opacity="0.283231431" stroke="#FFFFFF" fill="url(#linearGradient-1)"></path>
                                <g id="Combined-Shape">
                                    <use fill="#00E676" fill-rule="evenodd" xlink:href="#path-10"></use>
                                    <use fill="black" fill-opacity="1" filter="url(#filter-11)" xlink:href="#path-10"></use>
                                </g>
                                <path d="M30.0578089,27.3039249 L26.534045,29.145859 C25.9872541,29.452848 25.4404631,28.4704832 26.0480086,28.224892 L29.5717725,26.3829579 C30.1185634,26.0145711 30.6045998,26.9969359 30.0578089,27.3039249" id="Shape" fill="#03A9F4" fill-rule="nonzero" transform="translate(28.039455, 27.753079) rotate(-11.000000) translate(-28.039455, -27.753079) "></path>
                                <path d="M33.2790546,12.2135596 L29.4729693,10.9890644 C28.8490209,10.8141365 29.22339,9.82287849 29.8473384,9.99780637 L33.7158184,11.2223016 C34.277372,11.4555387 33.903003,12.3884874 33.2790546,12.2135596" id="Shape" fill="#FFFFFF" fill-rule="nonzero" transform="translate(31.571668, 11.106231) rotate(-10.000000) translate(-31.571668, -11.106231) "></path>
                                <path d="M9.15722097,25.1180966 L5.32474137,26.3425918 C4.7065995,26.5175197 4.33571438,25.584571 4.95385625,25.3513338 L8.78633584,24.1268386 C9.40447771,23.9519107 9.77536284,24.9431688 9.15722097,25.1180966" id="Shape" fill="#FFEB3B" fill-rule="nonzero" transform="translate(7.055539, 25.235263) rotate(-9.000000) translate(-7.055539, -25.235263) "></path>
                                <path d="M18.9107488,5.79009284 L15.0924745,4.28947051 C14.4560955,4.03936679 14.9015608,3.0389519 15.4743019,3.28905562 L19.2925762,4.78967795 C19.9289552,5.03978167 19.5471278,6.04019656 18.9107488,5.79009284" id="Shape" fill="#AA00FF" fill-rule="nonzero" transform="translate(17.200266, 4.539574) rotate(-9.000000) translate(-17.200266, -4.539574) "></path>
                                <path d="M7.57425934,18.5423971 L4.04900716,16.7366832 C3.50198528,16.4253532 3.92744674,15.4913633 4.53524884,15.7404272 L8.06050101,17.5461411 C8.6075229,17.8574711 8.18206143,18.853727 7.57425934,18.5423971" id="Shape" fill="#03A9F4" fill-rule="nonzero" transform="translate(6.054754, 17.150304) rotate(-3.000000) translate(-6.054754, -17.150304) "></path>
                                <path d="M35.5940192,16.8594241 L31.774098,18.0833254 C31.1579817,18.2581684 30.7883119,17.3256722 31.4044282,17.0925482 L35.2243494,15.8686469 C35.9020773,15.6938039 36.2101355,16.6263001 35.5940192,16.8594241" id="Shape" fill="#AA00FF" fill-rule="nonzero" transform="translate(33.507152, 16.975986) rotate(-11.000000) translate(-33.507152, -16.975986) "></path>
                                <path d="M18.2767615,31.1705069 L14.1240005,31.3548387 C13.4851142,31.3548387 13.4212256,30.3102919 14.0601119,30.2488479 L18.2128729,30.0645161 C18.9156478,30.0645161 18.9795364,31.1705069 18.2767615,31.1705069" id="Shape" fill="#FFFFFF" fill-rule="nonzero" transform="translate(16.192341, 30.709677) rotate(-6.000000) translate(-16.192341, -30.709677) "></path>
                                <path d="M28.023732,5.72553724 L24.1602067,6.86963902 C23.5469487,7.06032266 23.2403197,5.97978208 23.8535777,5.78909845 L27.717103,4.64499666 C28.330361,4.51787424 28.63699,5.5348536 28.023732,5.72553724" id="Shape" fill="#FF4081" fill-rule="nonzero" transform="translate(25.938655, 5.763071) rotate(-7.000000) translate(-25.938655, -5.763071) "></path>
                                <path d="M11.4174922,9.26801232 L7.55958247,10.3798495 C6.94721585,10.576056 6.64103254,9.46421888 7.31463582,9.26801232 L11.1725455,8.15617515 C11.7849122,8.02537078 12.0298588,9.07180576 11.4174922,9.26801232" id="Shape" fill="#FF4081" fill-rule="nonzero" transform="translate(9.352847, 9.273932) rotate(-10.000000) translate(-9.352847, -9.273932) "></path>
                            </g>
                        </g>
                        <g id="Donut_Purple" transform="translate(0.000000, 74.000000)">
                            <g>
                                <path d="M0.00421881695,19.5850622 C0.00141079646,19.7230363 0,19.8613534 0,20 C0,31.045695 8.954305,40 20,40 C31.045695,40 40,31.045695 40,20 C40,19.8613534 39.9985892,19.7230363 39.9957812,19.5850622 C39.7748799,29.8264657 30.9070484,38.0645161 20,38.0645161 C9.09295162,38.0645161 0.225120094,29.8264657 0.00421881696,19.5850622 Z M6.00290647,5.71428571 C9.61015534,2.17946565 14.5505569,0 20,0 C25.4494431,0 30.3898447,2.17946565 33.9970935,5.71428571 C30.3898447,2.37901195 25.4494431,0.322580645 20,0.322580645 C14.5505569,0.322580645 9.61015534,2.37901195 6.00290647,5.71428571 Z" id="Combined-Shape" fill="#E9B464"></path>
                                <path d="M20,39.0322581 C8.954305,39.0322581 0,30.3668016 0,19.6774194 C0,8.9880371 8.954305,0.322580645 20,0.322580645 C31.045695,0.322580645 40,8.9880371 40,19.6774194 C40,30.3668016 31.045695,39.0322581 20,39.0322581 Z M20,28.4449959 C24.2757529,28.4449959 27.7419355,24.8899368 27.7419355,20.5045492 C27.7419355,16.1191616 24.2757529,12.5641026 20,12.5641026 C15.7242471,12.5641026 12.2580645,16.1191616 12.2580645,20.5045492 C12.2580645,24.8899368 15.7242471,28.4449959 20,28.4449959 Z" id="Combined-Shape" stroke-opacity="0.283231431" stroke="#FFFFFF" fill="url(#linearGradient-1)"></path>
                                <g id="Combined-Shape">
                                    <use fill="#AA00FF" fill-rule="evenodd" xlink:href="#path-12"></use>
                                    <use fill="black" fill-opacity="1" filter="url(#filter-13)" xlink:href="#path-12"></use>
                                </g>
                                <path d="M30.0578089,27.3039249 L26.534045,29.145859 C25.9872541,29.452848 25.4404631,28.4704832 26.0480086,28.224892 L29.5717725,26.3829579 C30.1185634,26.0145711 30.6045998,26.9969359 30.0578089,27.3039249" id="Shape" fill="#03A9F4" fill-rule="nonzero" transform="translate(28.039455, 27.753079) rotate(-11.000000) translate(-28.039455, -27.753079) "></path>
                                <path d="M33.2790546,12.2135596 L29.4729693,10.9890644 C28.8490209,10.8141365 29.22339,9.82287849 29.8473384,9.99780637 L33.7158184,11.2223016 C34.277372,11.4555387 33.903003,12.3884874 33.2790546,12.2135596" id="Shape" fill="#FFFFFF" fill-rule="nonzero" transform="translate(31.571668, 11.106231) rotate(-10.000000) translate(-31.571668, -11.106231) "></path>
                                <path d="M9.15722097,25.1180966 L5.32474137,26.3425918 C4.7065995,26.5175197 4.33571438,25.584571 4.95385625,25.3513338 L8.78633584,24.1268386 C9.40447771,23.9519107 9.77536284,24.9431688 9.15722097,25.1180966" id="Shape" fill="#FFEB3B" fill-rule="nonzero" transform="translate(7.055539, 25.235263) rotate(-9.000000) translate(-7.055539, -25.235263) "></path>
                                <path d="M18.9107488,5.79009284 L15.0924745,4.28947051 C14.4560955,4.03936679 14.9015608,3.0389519 15.4743019,3.28905562 L19.2925762,4.78967795 C19.9289552,5.03978167 19.5471278,6.04019656 18.9107488,5.79009284" id="Shape" fill="#FF4081" fill-rule="nonzero" transform="translate(17.200266, 4.539574) rotate(-9.000000) translate(-17.200266, -4.539574) "></path>
                                <path d="M7.57425934,18.5423971 L4.04900716,16.7366832 C3.50198528,16.4253532 3.92744674,15.4913633 4.53524884,15.7404272 L8.06050101,17.5461411 C8.6075229,17.8574711 8.18206143,18.853727 7.57425934,18.5423971" id="Shape" fill="#03A9F4" fill-rule="nonzero" transform="translate(6.054754, 17.150304) rotate(-3.000000) translate(-6.054754, -17.150304) "></path>
                                <path d="M35.5940192,16.8594241 L31.774098,18.0833254 C31.1579817,18.2581684 30.7883119,17.3256722 31.4044282,17.0925482 L35.2243494,15.8686469 C35.9020773,15.6938039 36.2101355,16.6263001 35.5940192,16.8594241" id="Shape" fill="#FF4081" fill-rule="nonzero" transform="translate(33.507152, 16.975986) rotate(-11.000000) translate(-33.507152, -16.975986) "></path>
                                <path d="M18.2767615,31.1705069 L14.1240005,31.3548387 C13.4851142,31.3548387 13.4212256,30.3102919 14.0601119,30.2488479 L18.2128729,30.0645161 C18.9156478,30.0645161 18.9795364,31.1705069 18.2767615,31.1705069" id="Shape" fill="#FFFFFF" fill-rule="nonzero" transform="translate(16.192341, 30.709677) rotate(-6.000000) translate(-16.192341, -30.709677) "></path>
                                <path d="M28.023732,5.72553724 L24.1602067,6.86963902 C23.5469487,7.06032266 23.2403197,5.97978208 23.8535777,5.78909845 L27.717103,4.64499666 C28.330361,4.51787424 28.63699,5.5348536 28.023732,5.72553724" id="Shape" fill="#00E676" fill-rule="nonzero" transform="translate(25.938655, 5.763071) rotate(-7.000000) translate(-25.938655, -5.763071) "></path>
                                <path d="M11.4174922,9.26801232 L7.55958247,10.3798495 C6.94721585,10.576056 6.64103254,9.46421888 7.31463582,9.26801232 L11.1725455,8.15617515 C11.7849122,8.02537078 12.0298588,9.07180576 11.4174922,9.26801232" id="Shape" fill="#00E676" fill-rule="nonzero" transform="translate(9.352847, 9.273932) rotate(-10.000000) translate(-9.352847, -9.273932) "></path>
                            </g>
                        </g>
                        <g id="Donut_blue" transform="translate(62.000000, 57.000000)">
                            <g>
                                <path d="M0.00421881695,19.5850622 C0.00141079646,19.7230363 0,19.8613534 0,20 C0,31.045695 8.954305,40 20,40 C31.045695,40 40,31.045695 40,20 C40,19.8613534 39.9985892,19.7230363 39.9957812,19.5850622 C39.7748799,29.8264657 30.9070484,38.0645161 20,38.0645161 C9.09295162,38.0645161 0.225120094,29.8264657 0.00421881696,19.5850622 Z M6.00290647,5.71428571 C9.61015534,2.17946565 14.5505569,0 20,0 C25.4494431,0 30.3898447,2.17946565 33.9970935,5.71428571 C30.3898447,2.37901195 25.4494431,0.322580645 20,0.322580645 C14.5505569,0.322580645 9.61015534,2.37901195 6.00290647,5.71428571 Z" id="Combined-Shape" fill="#E9B464"></path>
                                <path d="M20,39.0322581 C8.954305,39.0322581 0,30.3668016 0,19.6774194 C0,8.9880371 8.954305,0.322580645 20,0.322580645 C31.045695,0.322580645 40,8.9880371 40,19.6774194 C40,30.3668016 31.045695,39.0322581 20,39.0322581 Z M20,28.4449959 C24.2757529,28.4449959 27.7419355,24.8899368 27.7419355,20.5045492 C27.7419355,16.1191616 24.2757529,12.5641026 20,12.5641026 C15.7242471,12.5641026 12.2580645,16.1191616 12.2580645,20.5045492 C12.2580645,24.8899368 15.7242471,28.4449959 20,28.4449959 Z" id="Combined-Shape" stroke-opacity="0.283231431" stroke="#FFFFFF" fill="url(#linearGradient-1)"></path>
                                <g id="Combined-Shape">
                                    <use fill="#03A9F4" fill-rule="evenodd" xlink:href="#path-14"></use>
                                    <use fill="black" fill-opacity="1" filter="url(#filter-15)" xlink:href="#path-14"></use>
                                </g>
                                <path d="M30.0578089,27.3039249 L26.534045,29.145859 C25.9872541,29.452848 25.4404631,28.4704832 26.0480086,28.224892 L29.5717725,26.3829579 C30.1185634,26.0145711 30.6045998,26.9969359 30.0578089,27.3039249" id="Shape" fill="#FF4081" fill-rule="nonzero" transform="translate(28.039455, 27.753079) rotate(-11.000000) translate(-28.039455, -27.753079) "></path>
                                <path d="M33.2790546,12.2135596 L29.4729693,10.9890644 C28.8490209,10.8141365 29.22339,9.82287849 29.8473384,9.99780637 L33.7158184,11.2223016 C34.277372,11.4555387 33.903003,12.3884874 33.2790546,12.2135596" id="Shape" fill="#FFFFFF" fill-rule="nonzero" transform="translate(31.571668, 11.106231) rotate(-10.000000) translate(-31.571668, -11.106231) "></path>
                                <path d="M9.15722097,25.1180966 L5.32474137,26.3425918 C4.7065995,26.5175197 4.33571438,25.584571 4.95385625,25.3513338 L8.78633584,24.1268386 C9.40447771,23.9519107 9.77536284,24.9431688 9.15722097,25.1180966" id="Shape" fill="#FFEB3B" fill-rule="nonzero" transform="translate(7.055539, 25.235263) rotate(-9.000000) translate(-7.055539, -25.235263) "></path>
                                <path d="M18.9107488,5.79009284 L15.0924745,4.28947051 C14.4560955,4.03936679 14.9015608,3.0389519 15.4743019,3.28905562 L19.2925762,4.78967795 C19.9289552,5.03978167 19.5471278,6.04019656 18.9107488,5.79009284" id="Shape" fill="#AA00FF" fill-rule="nonzero" transform="translate(17.200266, 4.539574) rotate(-9.000000) translate(-17.200266, -4.539574) "></path>
                                <path d="M7.57425934,18.5423971 L4.04900716,16.7366832 C3.50198528,16.4253532 3.92744674,15.4913633 4.53524884,15.7404272 L8.06050101,17.5461411 C8.6075229,17.8574711 8.18206143,18.853727 7.57425934,18.5423971" id="Shape" fill="#FF4081" fill-rule="nonzero" transform="translate(6.054754, 17.150304) rotate(-3.000000) translate(-6.054754, -17.150304) "></path>
                                <path d="M35.5940192,16.8594241 L31.774098,18.0833254 C31.1579817,18.2581684 30.7883119,17.3256722 31.4044282,17.0925482 L35.2243494,15.8686469 C35.9020773,15.6938039 36.2101355,16.6263001 35.5940192,16.8594241" id="Shape" fill="#AA00FF" fill-rule="nonzero" transform="translate(33.507152, 16.975986) rotate(-11.000000) translate(-33.507152, -16.975986) "></path>
                                <path d="M18.2767615,31.1705069 L14.1240005,31.3548387 C13.4851142,31.3548387 13.4212256,30.3102919 14.0601119,30.2488479 L18.2128729,30.0645161 C18.9156478,30.0645161 18.9795364,31.1705069 18.2767615,31.1705069" id="Shape" fill="#FFFFFF" fill-rule="nonzero" transform="translate(16.192341, 30.709677) rotate(-6.000000) translate(-16.192341, -30.709677) "></path>
                                <path d="M28.023732,5.72553724 L24.1602067,6.86963902 C23.5469487,7.06032266 23.2403197,5.97978208 23.8535777,5.78909845 L27.717103,4.64499666 C28.330361,4.51787424 28.63699,5.5348536 28.023732,5.72553724" id="Shape" fill="#00E676" fill-rule="nonzero" transform="translate(25.938655, 5.763071) rotate(-7.000000) translate(-25.938655, -5.763071) "></path>
                                <path d="M11.4174922,9.26801232 L7.55958247,10.3798495 C6.94721585,10.576056 6.64103254,9.46421888 7.31463582,9.26801232 L11.1725455,8.15617515 C11.7849122,8.02537078 12.0298588,9.07180576 11.4174922,9.26801232" id="Shape" fill="#00E676" fill-rule="nonzero" transform="translate(9.352847, 9.273932) rotate(-10.000000) translate(-9.352847, -9.273932) "></path>
                            </g>
                        </g>
                        <g id="Donut_blue" transform="translate(180.000000, 37.000000)">
                            <g>
                                <path d="M0.00421881695,19.5850622 C0.00141079646,19.7230363 0,19.8613534 0,20 C0,31.045695 8.954305,40 20,40 C31.045695,40 40,31.045695 40,20 C40,19.8613534 39.9985892,19.7230363 39.9957812,19.5850622 C39.7748799,29.8264657 30.9070484,38.0645161 20,38.0645161 C9.09295162,38.0645161 0.225120094,29.8264657 0.00421881696,19.5850622 Z M6.00290647,5.71428571 C9.61015534,2.17946565 14.5505569,0 20,0 C25.4494431,0 30.3898447,2.17946565 33.9970935,5.71428571 C30.3898447,2.37901195 25.4494431,0.322580645 20,0.322580645 C14.5505569,0.322580645 9.61015534,2.37901195 6.00290647,5.71428571 Z" id="Combined-Shape" fill="#E9B464"></path>
                                <path d="M20,39.0322581 C8.954305,39.0322581 0,30.3668016 0,19.6774194 C0,8.9880371 8.954305,0.322580645 20,0.322580645 C31.045695,0.322580645 40,8.9880371 40,19.6774194 C40,30.3668016 31.045695,39.0322581 20,39.0322581 Z M20,28.4449959 C24.2757529,28.4449959 27.7419355,24.8899368 27.7419355,20.5045492 C27.7419355,16.1191616 24.2757529,12.5641026 20,12.5641026 C15.7242471,12.5641026 12.2580645,16.1191616 12.2580645,20.5045492 C12.2580645,24.8899368 15.7242471,28.4449959 20,28.4449959 Z" id="Combined-Shape" stroke-opacity="0.283231431" stroke="#FFFFFF" fill="url(#linearGradient-1)"></path>
                                <g id="Combined-Shape">
                                    <use fill="#03A9F4" fill-rule="evenodd" xlink:href="#path-16"></use>
                                    <use fill="black" fill-opacity="1" filter="url(#filter-17)" xlink:href="#path-16"></use>
                                </g>
                                <path d="M30.0578089,27.3039249 L26.534045,29.145859 C25.9872541,29.452848 25.4404631,28.4704832 26.0480086,28.224892 L29.5717725,26.3829579 C30.1185634,26.0145711 30.6045998,26.9969359 30.0578089,27.3039249" id="Shape" fill="#FF4081" fill-rule="nonzero" transform="translate(28.039455, 27.753079) rotate(-11.000000) translate(-28.039455, -27.753079) "></path>
                                <path d="M33.2790546,12.2135596 L29.4729693,10.9890644 C28.8490209,10.8141365 29.22339,9.82287849 29.8473384,9.99780637 L33.7158184,11.2223016 C34.277372,11.4555387 33.903003,12.3884874 33.2790546,12.2135596" id="Shape" fill="#FFFFFF" fill-rule="nonzero" transform="translate(31.571668, 11.106231) rotate(-10.000000) translate(-31.571668, -11.106231) "></path>
                                <path d="M9.15722097,25.1180966 L5.32474137,26.3425918 C4.7065995,26.5175197 4.33571438,25.584571 4.95385625,25.3513338 L8.78633584,24.1268386 C9.40447771,23.9519107 9.77536284,24.9431688 9.15722097,25.1180966" id="Shape" fill="#FFEB3B" fill-rule="nonzero" transform="translate(7.055539, 25.235263) rotate(-9.000000) translate(-7.055539, -25.235263) "></path>
                                <path d="M18.9107488,5.79009284 L15.0924745,4.28947051 C14.4560955,4.03936679 14.9015608,3.0389519 15.4743019,3.28905562 L19.2925762,4.78967795 C19.9289552,5.03978167 19.5471278,6.04019656 18.9107488,5.79009284" id="Shape" fill="#AA00FF" fill-rule="nonzero" transform="translate(17.200266, 4.539574) rotate(-9.000000) translate(-17.200266, -4.539574) "></path>
                                <path d="M7.57425934,18.5423971 L4.04900716,16.7366832 C3.50198528,16.4253532 3.92744674,15.4913633 4.53524884,15.7404272 L8.06050101,17.5461411 C8.6075229,17.8574711 8.18206143,18.853727 7.57425934,18.5423971" id="Shape" fill="#FF4081" fill-rule="nonzero" transform="translate(6.054754, 17.150304) rotate(-3.000000) translate(-6.054754, -17.150304) "></path>
                                <path d="M35.5940192,16.8594241 L31.774098,18.0833254 C31.1579817,18.2581684 30.7883119,17.3256722 31.4044282,17.0925482 L35.2243494,15.8686469 C35.9020773,15.6938039 36.2101355,16.6263001 35.5940192,16.8594241" id="Shape" fill="#AA00FF" fill-rule="nonzero" transform="translate(33.507152, 16.975986) rotate(-11.000000) translate(-33.507152, -16.975986) "></path>
                                <path d="M18.2767615,31.1705069 L14.1240005,31.3548387 C13.4851142,31.3548387 13.4212256,30.3102919 14.0601119,30.2488479 L18.2128729,30.0645161 C18.9156478,30.0645161 18.9795364,31.1705069 18.2767615,31.1705069" id="Shape" fill="#FFFFFF" fill-rule="nonzero" transform="translate(16.192341, 30.709677) rotate(-6.000000) translate(-16.192341, -30.709677) "></path>
                                <path d="M28.023732,5.72553724 L24.1602067,6.86963902 C23.5469487,7.06032266 23.2403197,5.97978208 23.8535777,5.78909845 L27.717103,4.64499666 C28.330361,4.51787424 28.63699,5.5348536 28.023732,5.72553724" id="Shape" fill="#00E676" fill-rule="nonzero" transform="translate(25.938655, 5.763071) rotate(-7.000000) translate(-25.938655, -5.763071) "></path>
                                <path d="M11.4174922,9.26801232 L7.55958247,10.3798495 C6.94721585,10.576056 6.64103254,9.46421888 7.31463582,9.26801232 L11.1725455,8.15617515 C11.7849122,8.02537078 12.0298588,9.07180576 11.4174922,9.26801232" id="Shape" fill="#00E676" fill-rule="nonzero" transform="translate(9.352847, 9.273932) rotate(-10.000000) translate(-9.352847, -9.273932) "></path>
                            </g>
                        </g>
                        <g id="Donut_black" transform="translate(156.000000, 59.000000)">
                            <g>
                                <path d="M0.00421881695,19.5850622 C0.00141079646,19.7230363 0,19.8613534 0,20 C0,31.045695 8.954305,40 20,40 C31.045695,40 40,31.045695 40,20 C40,19.8613534 39.9985892,19.7230363 39.9957812,19.5850622 C39.7748799,29.8264657 30.9070484,38.0645161 20,38.0645161 C9.09295162,38.0645161 0.225120094,29.8264657 0.00421881696,19.5850622 Z M6.00290647,5.71428571 C9.61015534,2.17946565 14.5505569,0 20,0 C25.4494431,0 30.3898447,2.17946565 33.9970935,5.71428571 C30.3898447,2.37901195 25.4494431,0.322580645 20,0.322580645 C14.5505569,0.322580645 9.61015534,2.37901195 6.00290647,5.71428571 Z" id="Combined-Shape" fill="#E9B464"></path>
                                <path d="M20,39.0322581 C8.954305,39.0322581 0,30.3668016 0,19.6774194 C0,8.9880371 8.954305,0.322580645 20,0.322580645 C31.045695,0.322580645 40,8.9880371 40,19.6774194 C40,30.3668016 31.045695,39.0322581 20,39.0322581 Z M20,28.4449959 C24.2757529,28.4449959 27.7419355,24.8899368 27.7419355,20.5045492 C27.7419355,16.1191616 24.2757529,12.5641026 20,12.5641026 C15.7242471,12.5641026 12.2580645,16.1191616 12.2580645,20.5045492 C12.2580645,24.8899368 15.7242471,28.4449959 20,28.4449959 Z" id="Combined-Shape" stroke-opacity="0.283231431" stroke="#FFFFFF" fill="url(#linearGradient-1)"></path>
                                <g id="Combined-Shape">
                                    <use fill="#404040" fill-rule="evenodd" xlink:href="#path-18"></use>
                                    <use fill="black" fill-opacity="1" filter="url(#filter-19)" xlink:href="#path-18"></use>
                                </g>
                                <path d="M30.0578089,27.3039249 L26.534045,29.145859 C25.9872541,29.452848 25.4404631,28.4704832 26.0480086,28.224892 L29.5717725,26.3829579 C30.1185634,26.0145711 30.6045998,26.9969359 30.0578089,27.3039249" id="Shape" fill="#03A9F4" fill-rule="nonzero" transform="translate(28.039455, 27.753079) rotate(-11.000000) translate(-28.039455, -27.753079) "></path>
                                <path d="M33.2790546,12.2135596 L29.4729693,10.9890644 C28.8490209,10.8141365 29.22339,9.82287849 29.8473384,9.99780637 L33.7158184,11.2223016 C34.277372,11.4555387 33.903003,12.3884874 33.2790546,12.2135596" id="Shape" fill="#FFFFFF" fill-rule="nonzero" transform="translate(31.571668, 11.106231) rotate(-10.000000) translate(-31.571668, -11.106231) "></path>
                                <path d="M9.15722097,25.1180966 L5.32474137,26.3425918 C4.7065995,26.5175197 4.33571438,25.584571 4.95385625,25.3513338 L8.78633584,24.1268386 C9.40447771,23.9519107 9.77536284,24.9431688 9.15722097,25.1180966" id="Shape" fill="#FFEB3B" fill-rule="nonzero" transform="translate(7.055539, 25.235263) rotate(-9.000000) translate(-7.055539, -25.235263) "></path>
                                <path d="M18.9107488,5.79009284 L15.0924745,4.28947051 C14.4560955,4.03936679 14.9015608,3.0389519 15.4743019,3.28905562 L19.2925762,4.78967795 C19.9289552,5.03978167 19.5471278,6.04019656 18.9107488,5.79009284" id="Shape" fill="#AA00FF" fill-rule="nonzero" transform="translate(17.200266, 4.539574) rotate(-9.000000) translate(-17.200266, -4.539574) "></path>
                                <path d="M7.57425934,18.5423971 L4.04900716,16.7366832 C3.50198528,16.4253532 3.92744674,15.4913633 4.53524884,15.7404272 L8.06050101,17.5461411 C8.6075229,17.8574711 8.18206143,18.853727 7.57425934,18.5423971" id="Shape" fill="#03A9F4" fill-rule="nonzero" transform="translate(6.054754, 17.150304) rotate(-3.000000) translate(-6.054754, -17.150304) "></path>
                                <path d="M35.5940192,16.8594241 L31.774098,18.0833254 C31.1579817,18.2581684 30.7883119,17.3256722 31.4044282,17.0925482 L35.2243494,15.8686469 C35.9020773,15.6938039 36.2101355,16.6263001 35.5940192,16.8594241" id="Shape" fill="#AA00FF" fill-rule="nonzero" transform="translate(33.507152, 16.975986) rotate(-11.000000) translate(-33.507152, -16.975986) "></path>
                                <path d="M18.2767615,31.1705069 L14.1240005,31.3548387 C13.4851142,31.3548387 13.4212256,30.3102919 14.0601119,30.2488479 L18.2128729,30.0645161 C18.9156478,30.0645161 18.9795364,31.1705069 18.2767615,31.1705069" id="Shape" fill="#FFFFFF" fill-rule="nonzero" transform="translate(16.192341, 30.709677) rotate(-6.000000) translate(-16.192341, -30.709677) "></path>
                                <path d="M28.023732,5.72553724 L24.1602067,6.86963902 C23.5469487,7.06032266 23.2403197,5.97978208 23.8535777,5.78909845 L27.717103,4.64499666 C28.330361,4.51787424 28.63699,5.5348536 28.023732,5.72553724" id="Shape" fill="#00E676" fill-rule="nonzero" transform="translate(25.938655, 5.763071) rotate(-7.000000) translate(-25.938655, -5.763071) "></path>
                                <path d="M11.4174922,9.26801232 L7.55958247,10.3798495 C6.94721585,10.576056 6.64103254,9.46421888 7.31463582,9.26801232 L11.1725455,8.15617515 C11.7849122,8.02537078 12.0298588,9.07180576 11.4174922,9.26801232" id="Shape" fill="#00E676" fill-rule="nonzero" transform="translate(9.352847, 9.273932) rotate(-10.000000) translate(-9.352847, -9.273932) "></path>
                            </g>
                        </g>
                    </g>
                </g>
            </g>
        </g>
    </g>
</svg>